<?xml version="1.0" encoding="UTF-8"?>
<!DOCTYPE svg PUBLIC "-//W3C//DTD SVG 1.1//EN" "http://www.w3.org/Graphics/SVG/1.1/DTD/svg11.dtd">
<svg version="1.1" xmlns="http://www.w3.org/2000/svg" xmlns:xlink="http://www.w3.org/1999/xlink" x="0" y="0" width="24" height="24" viewBox="0, 0, 24, 24">
  <g id="Layer_2">
    <path d="M0,0 L24,0 L24,24 L0,24 z" fill="#FFFFFF" opacity="0"/>
    <path d="M16,11 L10.34,11 L11.59,9.69 C11.971,9.29 11.955,8.656 11.555,8.275 C11.155,7.894 10.521,7.91 10.14,8.31 L7.28,11.31 C7.247,11.351 7.217,11.394 7.19,11.44 C7.144,11.497 7.107,11.561 7.08,11.63 C7.045,11.719 7.025,11.814 7.02,11.91 C7.015,12.006 7,12 7,12 L7,12 C7.002,12.131 7.029,12.26 7.08,12.38 C7.129,12.499 7.2,12.608 7.29,12.7 L10.29,15.7 C10.478,15.889 10.733,15.996 11,15.996 C11.267,15.996 11.522,15.889 11.71,15.7 C11.899,15.512 12.006,15.257 12.006,14.99 C12.006,14.723 11.899,14.468 11.71,14.28 L10.41,13 L16,13 C16.552,13 17,12.552 17,12 C17,11.448 16.552,11 16,11 z" fill="grey"/>
    <path d="M12,2 C6.477,2 2,6.477 2,12 C2,17.523 6.477,22 12,22 C17.523,22 22,17.523 22,12 C22,6.477 17.523,2 12,2 z M12,20 C7.582,20 4,16.418 4,12 C4,7.582 7.582,4 12,4 C16.418,4 20,7.582 20,12 C20,16.418 16.418,20 12,20 z" fill="grey"/>
  </g>
</svg>
