<?xml version="1.0" encoding="UTF-8"?>
<!DOCTYPE svg PUBLIC "-//W3C//DTD SVG 1.1//EN" "http://www.w3.org/Graphics/SVG/1.1/DTD/svg11.dtd">
<svg version="1.1" xmlns="http://www.w3.org/2000/svg" xmlns:xlink="http://www.w3.org/1999/xlink" x="0" y="0" width="24" height="24" viewBox="0, 0, 24, 24">
  <g id="Layer_2">
    <path d="M0,24 L0,0 L24,0 L24,24 z" fill="#FFFFFF" opacity="0"/>
    <path d="M17,12 L17,12 C17,12 17,11.94 17,11.91 C16.995,11.814 16.975,11.719 16.94,11.63 C16.913,11.561 16.876,11.497 16.83,11.44 C16.803,11.394 16.773,11.351 16.74,11.31 L13.88,8.31 C13.499,7.91 12.865,7.894 12.465,8.275 C12.065,8.656 12.049,9.29 12.43,9.69 L13.66,11 L8,11 C7.448,11 7,11.448 7,12 C7,12.552 7.448,13 8,13 L13.59,13 L12.29,14.29 C12.101,14.478 11.994,14.733 11.994,15 C11.994,15.267 12.101,15.522 12.29,15.71 C12.478,15.899 12.733,16.006 13,16.006 C13.267,16.006 13.522,15.899 13.71,15.71 L16.71,12.71 C16.8,12.618 16.871,12.509 16.92,12.39 C16.973,12.267 17,12.134 17,12 z" fill="grey"/>
    <path d="M12,2 C6.477,2 2,6.477 2,12 C2,17.523 6.477,22 12,22 C17.523,22 22,17.523 22,12 C22,6.477 17.523,2 12,2 z M12,20 C7.582,20 4,16.418 4,12 C4,7.582 7.582,4 12,4 C16.418,4 20,7.582 20,12 C20,16.418 16.418,20 12,20 z" fill="grey"/>
  </g>
</svg>
