<?xml version="1.0" encoding="UTF-8"?>
<!DOCTYPE svg PUBLIC "-//W3C//DTD SVG 1.1//EN" "http://www.w3.org/Graphics/SVG/1.1/DTD/svg11.dtd">
<svg version="1.1" xmlns="http://www.w3.org/2000/svg" xmlns:xlink="http://www.w3.org/1999/xlink" x="0" y="0" width="24" height="24" viewBox="0, 0, 24, 24">
  <g id="Layer_2">
    <path d="M0,0 L24,0 L24,24 L0,24 z" fill="#FFFFFF" opacity="0"/>
    <path d="M14.31,12.41 L13,13.66 L13,8 C13,7.448 12.552,7 12,7 C11.448,7 11,7.448 11,8 L11,13.59 L9.71,12.29 C9.318,11.898 8.682,11.898 8.29,12.29 C7.898,12.682 7.898,13.318 8.29,13.71 L11.29,16.71 C11.385,16.801 11.497,16.872 11.62,16.92 C11.862,17.027 12.138,17.027 12.38,16.92 C12.439,16.896 12.493,16.862 12.54,16.82 C12.596,16.796 12.647,16.762 12.69,16.72 L15.69,13.86 C16.09,13.479 16.106,12.845 15.725,12.445 C15.344,12.045 14.71,12.029 14.31,12.41 z" fill="grey"/>
    <path d="M12,2 C6.477,2 2,6.477 2,12 C2,17.523 6.477,22 12,22 C17.523,22 22,17.523 22,12 C22,6.477 17.523,2 12,2 z M12,20 C7.582,20 4,16.418 4,12 C4,7.582 7.582,4 12,4 C16.418,4 20,7.582 20,12 C20,16.418 16.418,20 12,20 z" fill="grey"/>
  </g>
</svg>
