<?xml version="1.0" encoding="UTF-8"?>
<!DOCTYPE svg PUBLIC "-//W3C//DTD SVG 1.1//EN" "http://www.w3.org/Graphics/SVG/1.1/DTD/svg11.dtd">
<svg version="1.1" xmlns="http://www.w3.org/2000/svg" xmlns:xlink="http://www.w3.org/1999/xlink" x="0" y="0" width="24" height="24" viewBox="0, 0, 24, 24">
  <g id="Layer_2">
    <rect width="24" height="24" fill="#FFFFFF" opacity="0"/>
    <path  d="M19,20.75l-2.31-9A5.94,5.94,0,0,0,18,8,6,6,0,0,0,6,8a5.94,5.94,0,0,0,1.34,3.77L5,20.75a1,1,0,0,0,1.48,1.11l5.33-3.13,5.68,3.14A.91.91,0,0,0,18,22a1,1,0,0,0,1-1.25ZM12,4A4,4,0,1,1,8,8,4,4,0,0,1,12,4Zm.31,12.71a1,1,0,0,0-1,0l-3.75,2.2L9,13.21a5.94,5.94,0,0,0,5.92,0L16.45,19Z" fill="#231F20"/>
  </g>
</svg>
