<?xml version="1.0" encoding="UTF-8"?>
<!DOCTYPE svg PUBLIC "-//W3C//DTD SVG 1.1//EN" "http://www.w3.org/Graphics/SVG/1.1/DTD/svg11.dtd">
<svg version="1.1" xmlns="http://www.w3.org/2000/svg" xmlns:xlink="http://www.w3.org/1999/xlink" x="0" y="0" width="24" height="24" viewBox="0, 0, 24, 24">
  <g id="Layer_2">
    <path d="M0,0 L24,0 L24,24 L0,24 z" fill="#FFFFFF" opacity="0"/>
    <path d="M6.09,21.06 C5.538,21.06 5.09,20.612 5.09,20.06 L4.94,5.4 C4.916,4.799 5.132,4.213 5.541,3.772 C5.95,3.331 6.519,3.071 7.12,3.05 L16.71,3 C17.964,3.022 18.962,4.056 18.94,5.31 L19.08,19.97 C19.083,20.327 18.897,20.658 18.59,20.84 C18.281,21.019 17.899,21.019 17.59,20.84 L11.89,17.68 L6.6,20.91 C6.443,20.997 6.269,21.049 6.09,21.06 z M11.85,15.51 C12.024,15.51 12.195,15.551 12.35,15.63 L17.06,18.24 L16.94,5.29 C16.94,5.09 16.81,4.95 16.73,4.96 L7.13,5.05 C7.05,5.05 6.94,5.18 6.94,5.38 L7.06,18.28 L11.34,15.65 C11.495,15.561 11.671,15.513 11.85,15.51 z" fill="grey"/>
  </g>
</svg>
