<?xml version="1.0" encoding="UTF-8"?>
<!DOCTYPE svg PUBLIC "-//W3C//DTD SVG 1.1//EN" "http://www.w3.org/Graphics/SVG/1.1/DTD/svg11.dtd">
<svg version="1.1" xmlns="http://www.w3.org/2000/svg" xmlns:xlink="http://www.w3.org/1999/xlink" x="0" y="0" width="24" height="24" viewBox="0, 0, 24, 24">
  <g id="Layer_2">
    <path d="M24,24 L-0,24 L-0,0 L24,0 z" fill="#FFFFFF" opacity="0"/>
    <path d="M12,7 C9.848,7 7.937,8.377 7.257,10.419 C6.576,12.461 7.278,14.709 9,16 L9,20 C9,21.105 9.895,22 11,22 L13,22 C14.105,22 15,21.105 15,20 L15,16 C16.722,14.709 17.424,12.461 16.743,10.419 C16.063,8.377 14.152,7 12,7 z M13.5,14.59 C13.189,14.769 12.999,15.101 13,15.46 L13,20 L11,20 L11,15.46 C11.001,15.101 10.811,14.769 10.5,14.59 C9.574,14.056 9.003,13.069 9,12 C9,10.343 10.343,9 12,9 C13.657,9 15,10.343 15,12 C14.997,13.069 14.426,14.056 13.5,14.59 z" fill="grey"/>
    <path d="M12,6 C12.552,6 13,5.552 13,5 L13,3 C13,2.448 12.552,2 12,2 C11.448,2 11,2.448 11,3 L11,5 C11,5.552 11.448,6 12,6 z" fill="grey"/>
    <path d="M21,11 L19,11 C18.448,11 18,11.448 18,12 C18,12.552 18.448,13 19,13 L21,13 C21.552,13 22,12.552 22,12 C22,11.448 21.552,11 21,11 z" fill="grey"/>
    <path d="M5,11 L3,11 C2.448,11 2,11.448 2,12 C2,12.552 2.448,13 3,13 L5,13 C5.552,13 6,12.552 6,12 C6,11.448 5.552,11 5,11 z" fill="grey"/>
    <path d="M7.66,6.42 L6.22,5 C5.814,4.616 5.174,4.634 4.79,5.04 C4.406,5.446 4.424,6.086 4.83,6.47 L6.27,7.86 C6.465,8.049 6.729,8.15 7,8.14 C7.272,8.139 7.532,8.027 7.72,7.83 C8.092,7.424 8.065,6.793 7.66,6.42 z" fill="grey"/>
    <path d="M19.19,5.05 C18.8,4.662 18.17,4.662 17.78,5.05 L16.34,6.42 C15.952,6.81 15.952,7.44 16.34,7.83 C16.528,8.027 16.788,8.139 17.06,8.14 C17.317,8.139 17.565,8.039 17.75,7.86 L19.19,6.47 C19.379,6.282 19.486,6.027 19.486,5.76 C19.486,5.493 19.379,5.238 19.19,5.05 z" fill="grey"/>
  </g>
</svg>
