<?xml version="1.0" encoding="UTF-8"?>
<!DOCTYPE svg PUBLIC "-//W3C//DTD SVG 1.1//EN" "http://www.w3.org/Graphics/SVG/1.1/DTD/svg11.dtd">
<svg version="1.1" xmlns="http://www.w3.org/2000/svg" xmlns:xlink="http://www.w3.org/1999/xlink" x="0" y="0" width="24" height="24" viewBox="0, 0, 24, 24">
  <g id="Layer_2">
    <path d="M0,0 L24,0 L24,24 L0,24 z" fill="#FFFFFF" opacity="0"/>
    <path d="M18,4 L17,4 L17,3 C17,2.448 16.552,2 16,2 C15.448,2 15,2.448 15,3 L15,4 L9,4 L9,3 C9,2.448 8.552,2 8,2 C7.448,2 7,2.448 7,3 L7,4 L6,4 C4.343,4 3,5.343 3,7 L3,19 C3,20.657 4.343,22 6,22 L18,22 C19.657,22 21,20.657 21,19 L21,7 C21,5.343 19.657,4 18,4 z M6,6 L7,6 L7,7 C7,7.552 7.448,8 8,8 C8.552,8 9,7.552 9,7 L9,6 L15,6 L15,7 C15,7.552 15.448,8 16,8 C16.552,8 17,7.552 17,7 L17,6 L18,6 C18.552,6 19,6.448 19,7 L19,11 L5,11 L5,7 C5,6.448 5.448,6 6,6 z M18,20 L6,20 C5.448,20 5,19.552 5,19 L5,13 L19,13 L19,19 C19,19.552 18.552,20 18,20 z" fill="grey"/>
    <path d="M9,16 C9,16.552 8.552,17 8,17 C7.448,17 7,16.552 7,16 C7,15.448 7.448,15 8,15 C8.552,15 9,15.448 9,16 z" fill="grey"/>
    <path d="M16,15 L12,15 C11.448,15 11,15.448 11,16 C11,16.552 11.448,17 12,17 L16,17 C16.552,17 17,16.552 17,16 C17,15.448 16.552,15 16,15 z" fill="grey"/>
  </g>
</svg>
