<?xml version="1.0" encoding="UTF-8"?>
<!DOCTYPE svg PUBLIC "-//W3C//DTD SVG 1.1//EN" "http://www.w3.org/Graphics/SVG/1.1/DTD/svg11.dtd">
<svg version="1.1" xmlns="http://www.w3.org/2000/svg" xmlns:xlink="http://www.w3.org/1999/xlink" x="0" y="0" width="24" height="24" viewBox="0, 0, 24, 24">
  <g id="Layer_2">
    <path d="M0,0 L24,0 L24,24 L0,24 z" fill="#FFFFFF" opacity="0"/>
    <path d="M9.86,18 C9.583,17.999 9.318,17.883 9.13,17.68 L4.27,12.51 C3.892,12.107 3.912,11.473 4.315,11.095 C4.718,10.717 5.352,10.737 5.73,11.14 L9.85,15.53 L18.26,6.33 C18.493,6.04 18.866,5.904 19.231,5.975 C19.596,6.046 19.891,6.313 19.997,6.669 C20.104,7.024 20.005,7.41 19.74,7.67 L10.6,17.67 C10.413,17.877 10.149,17.997 9.87,18 z" fill="#231F20"/>
  </g>
</svg>
