<?xml version="1.0" encoding="UTF-8"?>
<!DOCTYPE svg PUBLIC "-//W3C//DTD SVG 1.1//EN" "http://www.w3.org/Graphics/SVG/1.1/DTD/svg11.dtd">
<svg version="1.1" xmlns="http://www.w3.org/2000/svg" xmlns:xlink="http://www.w3.org/1999/xlink" x="0" y="0" width="24" height="24" viewBox="0, 0, 24, 24">
  <g id="Layer_2">
    <rect width="24" height="24" fill="#FFFFFF" opacity="0"/>
    <path d="M18,5V4a2,2,0,0,0-2-2H8A2,2,0,0,0,6,4V5A3,3,0,0,0,3,8V19a3,3,0,0,0,3,3H18a3,3,0,0,0,3-3V8A3,3,0,0,0,18,5ZM8,4h8V8H8V4ZM19,19a1,1,0,0,1-1,1H6a1,1,0,0,1-1-1V8A1,1,0,0,1,6,7V8a2,2,0,0,0,2,2h8a2,2,0,0,0,2-2V7a1,1,0,0,1,1,1Z" fill="#231F20"/>
  </g>
</svg>
