<?xml version="1.0" encoding="UTF-8"?>
<!DOCTYPE svg PUBLIC "-//W3C//DTD SVG 1.1//EN" "http://www.w3.org/Graphics/SVG/1.1/DTD/svg11.dtd">
<svg version="1.1" xmlns="http://www.w3.org/2000/svg" xmlns:xlink="http://www.w3.org/1999/xlink" x="0" y="0" width="24" height="24" viewBox="0, 0, 24, 24">
  <g id="Layer_2">
    <path d="M24,24 L-0,24 L-0,0 L24,0 z" fill="#FFFFFF" opacity="0"/>
    <path d="M12,2 C6.477,2 2,6.477 2,12 C2,17.523 6.477,22 12,22 C17.523,22 22,17.523 22,12 C22,6.477 17.523,2 12,2 z M12,20 C7.582,20 4,16.418 4,12 C4,7.582 7.582,4 12,4 C16.418,4 20,7.582 20,12 C20,16.418 16.418,20 12,20 z" fill="grey"/>
    <path d="M16,11 L13,11 L13,8 C13,7.448 12.552,7 12,7 C11.448,7 11,7.448 11,8 L11,12 C11,12.552 11.448,13 12,13 L16,13 C16.552,13 17,12.552 17,12 C17,11.448 16.552,11 16,11 z" fill="grey"/>
  </g>
</svg>
