<?xml version="1.0" encoding="UTF-8"?>
<!DOCTYPE svg PUBLIC "-//W3C//DTD SVG 1.1//EN" "http://www.w3.org/Graphics/SVG/1.1/DTD/svg11.dtd">
<svg version="1.1" xmlns="http://www.w3.org/2000/svg" xmlns:xlink="http://www.w3.org/1999/xlink" x="0" y="0" width="24" height="24" viewBox="0, 0, 24, 24">
  <g id="Layer_2">
    <rect width="24" height="24" fill="#FFFFFF" opacity="0"/>
    <path d="M12.71,11.29a1,1,0,0,0-1.4,0l-3,2.9a1,1,0,1,0,1.38,1.44L11,14.36V20a1,1,0,0,0,2,0V14.41l1.29,1.3a1,1,0,0,0,1.42,0,1,1,0,0,0,0-1.42Z" fill="grey"/>
    <path d="M17.67,7A6,6,0,0,0,6.33,7a5,5,0,0,0-3.08,8.27A1,1,0,1,0,4.75,14,3,3,0,0,1,7,9h.1a1,1,0,0,0,1-.8,4,4,0,0,1,7.84,0,1,1,0,0,0,1,.8H17a3,3,0,0,1,2.25,5,1,1,0,0,0,.09,1.42,1,1,0,0,0,.66.25,1,1,0,0,0,.75-.34A5,5,0,0,0,17.67,7Z" fill="grey"/>
  </g>
</svg>
