<?xml version="1.0" encoding="UTF-8"?>
<!DOCTYPE svg PUBLIC "-//W3C//DTD SVG 1.1//EN" "http://www.w3.org/Graphics/SVG/1.1/DTD/svg11.dtd">
<svg version="1.1" xmlns="http://www.w3.org/2000/svg" xmlns:xlink="http://www.w3.org/1999/xlink" x="0" y="0" width="24" height="24" viewBox="0, 0, 24, 24">
  <g id="Layer_2">
    <path d="M0,0 L24,0 L24,24 L0,24 z" fill="#FFFFFF" opacity="0"/>
    <path d="M12,2 C6.477,2 2,6.477 2,12 C2,17.523 6.477,22 12,22 C17.523,22 22,17.523 22,12 C22,6.477 17.523,2 12,2 z M12,20 C7.582,20 4,16.418 4,12 C4,7.582 7.582,4 12,4 C16.418,4 20,7.582 20,12 C20,16.418 16.418,20 12,20 z" fill="grey"/>
    <path d="M12.138,17.04 C13.37,17.04 14.49,16.634 15.372,15.948 C15.708,15.682 15.764,15.178 15.512,14.828 C15.232,14.492 14.714,14.436 14.392,14.674 C13.762,15.178 13.015,15.438 12.147,15.438 C11.181,15.438 10.276,15.052 9.618,14.436 C8.988,13.82 8.596,12.952 8.596,12 C8.596,11.048 8.988,10.208 9.618,9.564 C10.276,8.948 11.172,8.556 12.138,8.556 C13.006,8.556 13.776,8.822 14.392,9.326 C14.714,9.578 15.232,9.522 15.512,9.172 C15.764,8.822 15.708,8.332 15.372,8.052 C14.49,7.366 13.37,6.96 12.138,6.96 C9.338,6.974 7.014,9.228 7,12 C7.014,14.786 9.338,17.04 12.138,17.04 z" fill="grey"/>
  </g>
</svg>
