<?xml version="1.0" encoding="UTF-8"?>
<!DOCTYPE svg PUBLIC "-//W3C//DTD SVG 1.1//EN" "http://www.w3.org/Graphics/SVG/1.1/DTD/svg11.dtd">
<svg version="1.1" xmlns="http://www.w3.org/2000/svg" xmlns:xlink="http://www.w3.org/1999/xlink" x="0" y="0" width="24" height="24" viewBox="0, 0, 24, 24">
  <g id="Layer_2">
    <path d="M0,0 L24,0 L24,24 L0,24 z" fill="#FFFFFF" opacity="0"/>
    <path d="M15,16 L9,16 C8.448,16 8,16.448 8,17 C8,17.552 8.448,18 9,18 L15,18 C15.552,18 16,17.552 16,17 C16,16.448 15.552,16 15,16 z" fill="grey"/>
    <path d="M9,14 L12,14 C12.552,14 13,13.552 13,13 C13,12.448 12.552,12 12,12 L9,12 C8.448,12 8,12.448 8,13 C8,13.552 8.448,14 9,14 z" fill="grey"/>
    <path d="M19.74,8.33 L14.3,2.33 C14.111,2.121 13.842,2.001 13.56,2 L6.56,2 C5.163,1.983 4.016,3.103 4,4.5 L4,19.5 C4.016,20.897 5.163,22.017 6.56,22 L17.44,22 C18.837,22.017 19.984,20.897 20,19.5 L20,9 C19.999,8.752 19.907,8.513 19.74,8.33 z M14,5 L16.74,8 L14.74,8 C14.528,7.987 14.331,7.89 14.192,7.73 C14.053,7.57 13.984,7.361 14,7.15 z M17.44,20 L6.56,20 C6.419,20.008 6.281,19.96 6.176,19.866 C6.071,19.772 6.008,19.641 6,19.5 L6,4.5 C6.008,4.359 6.071,4.228 6.176,4.134 C6.281,4.04 6.419,3.992 6.56,4 L12,4 L12,7.15 C11.966,8.683 13.177,9.956 14.71,10 L18,10 L18,19.5 C17.992,19.641 17.929,19.772 17.824,19.866 C17.719,19.96 17.581,20.008 17.44,20 z" fill="grey"/>
  </g>
</svg>
