<?xml version="1.0" encoding="UTF-8"?>
<!DOCTYPE svg PUBLIC "-//W3C//DTD SVG 1.1//EN" "http://www.w3.org/Graphics/SVG/1.1/DTD/svg11.dtd">
<svg version="1.1" xmlns="http://www.w3.org/2000/svg" xmlns:xlink="http://www.w3.org/1999/xlink" x="0" y="0" width="24" height="24" viewBox="0, 0, 24, 24">
  <g id="Layer_2">
    <path d="M0,0 L24,0 L24,24 L0,24 z" fill="#FFFFFF" opacity="0"/>
    <path d="M5,18 L19,18 C19.552,18 20,18.448 20,19 L20,19 C20,19.552 19.552,20 19,20 L5,20 C4.448,20 4,19.552 4,19 L4,19 C4,18.448 4.448,18 5,18 z" fill="grey"/>
    <path d="M4,19 L4,17 C4,16.448 4.448,16 5,16 L5,16 C5.552,16 6,16.448 6,17 L6,19 C6,19.552 5.552,20 5,20 L5,20 C4.448,20 4,19.552 4,19 z" fill="grey"/>
    <path d="M18,19 L18,17 C18,16.448 18.448,16 19,16 L19,16 C19.552,16 20,16.448 20,17 L20,19 C20,19.552 19.552,20 19,20 L19,20 C18.448,20 18,19.552 18,19 z" fill="grey"/>
    <path d="M12,15 C11.793,15.002 11.59,14.939 11.42,14.82 L7.42,12 C6.971,11.682 6.864,11.06 7.18,10.61 C7.333,10.392 7.567,10.243 7.83,10.198 C8.093,10.153 8.363,10.215 8.58,10.37 L12,12.76 L15.4,10.2 C15.842,9.869 16.469,9.958 16.8,10.4 C17.131,10.842 17.042,11.469 16.6,11.8 L12.6,14.8 C12.427,14.93 12.216,15 12,15 z" fill="grey"/>
    <path d="M12,13 C11.448,13 11,12.552 11,12 L11,4 C11,3.448 11.448,3 12,3 C12.552,3 13,3.448 13,4 L13,12 C13,12.552 12.552,13 12,13 z" fill="grey"/>
  </g>
</svg>
