<?xml version="1.0" encoding="UTF-8"?>
<!DOCTYPE svg PUBLIC "-//W3C//DTD SVG 1.1//EN" "http://www.w3.org/Graphics/SVG/1.1/DTD/svg11.dtd">
<svg version="1.1" xmlns="http://www.w3.org/2000/svg" xmlns:xlink="http://www.w3.org/1999/xlink" x="0" y="0" width="24" height="24" viewBox="0, 0, 24, 24">
  <g id="Layer_2">
    <rect width="24" height="24" fill="#FFFFFF" opacity="0"/>
    <path d="M18,3H6A3,3,0,0,0,3,6V18a3,3,0,0,0,3,3H18a3,3,0,0,0,3-3V6A3,3,0,0,0,18,3ZM6,5H18a1,1,0,0,1,1,1v8.36l-3.2-2.73a2.77,2.77,0,0,0-3.52,0L5,17.7V6A1,1,0,0,1,6,5ZM18,19H6.56l7-5.84a.78.78,0,0,1,.93,0L19,17v1A1,1,0,0,1,18,19Z" fill="grey"/>
    <circle cx="8" cy="8.5" r="1.5" fill="grey"/>
  </g>
</svg>
