<?xml version="1.0" encoding="UTF-8"?>
<!DOCTYPE svg PUBLIC "-//W3C//DTD SVG 1.1//EN" "http://www.w3.org/Graphics/SVG/1.1/DTD/svg11.dtd">
<svg version="1.1" xmlns="http://www.w3.org/2000/svg" xmlns:xlink="http://www.w3.org/1999/xlink" x="0" y="0" width="24" height="24" viewBox="0, 0, 24, 24">
  <g id="Layer_2">
    <path d="M24,24 L-0,24 L-0,0 L24,0 z" fill="#FFFFFF" opacity="0"/>
    <path d="M20.41,5.89 L16.41,4.09 L16.36,4.09 L16.24,4.09 L16.12,4.09 L15.87,4.09 L15.77,4.09 L15.64,4.09 L15.59,4.09 L12,5.7 L8.41,4.09 L8.36,4.09 L8.24,4 L8.12,4 L7.87,4 L7.77,4 L7.64,4 L7.64,4 L3.64,5.8 C3.23,5.957 2.971,6.362 3,6.8 L3,19 C3.001,19.34 3.174,19.656 3.46,19.84 C3.621,19.944 3.808,20 4,20 C4.141,19.999 4.281,19.969 4.41,19.91 L8,18.3 L11.59,19.91 L11.64,19.91 C11.868,20.017 12.132,20.017 12.36,19.91 L12.41,19.91 L16,18.3 L19.59,19.91 C19.719,19.969 19.859,19.999 20,20 C20.192,20 20.379,19.944 20.54,19.84 C20.826,19.656 20.999,19.34 21,19 L21,6.8 C20.999,6.407 20.768,6.051 20.41,5.89 z M5,7.44 L7,6.55 L7,16.55 L5,17.44 z M9,6.55 L11,7.44 L11,17.44 L9,16.55 z M13,7.44 L15,6.55 L15,16.55 L13,17.44 z M19,17.44 L17,16.55 L17,6.55 L19,7.44 z" fill="grey"/>
  </g>
</svg>
