<?xml version="1.0" encoding="UTF-8"?>
<!DOCTYPE svg PUBLIC "-//W3C//DTD SVG 1.1//EN" "http://www.w3.org/Graphics/SVG/1.1/DTD/svg11.dtd">
<svg version="1.1" xmlns="http://www.w3.org/2000/svg" xmlns:xlink="http://www.w3.org/1999/xlink" x="0" y="0" width="24" height="24" viewBox="0, 0, 24, 24">
  <g id="Capa_1">
    <path d="M20.94,7.206 C20.662,5.165 18.864,3.556 16.731,3.244 C16.372,3.192 15.009,3 11.851,3 L11.828,3 C8.67,3 7.992,3.192 7.632,3.244 C5.559,3.548 3.666,4.993 3.207,7.059 C2.986,8.076 2.963,9.204 3.004,10.238 C3.062,11.722 3.074,13.203 3.21,14.681 C3.304,15.662 3.468,16.636 3.701,17.594 C4.138,19.365 5.905,20.838 7.637,21.439 C9.491,22.066 11.484,22.17 13.394,21.739 C13.604,21.691 13.812,21.635 14.018,21.571 C14.481,21.425 15.025,21.262 15.425,20.975 C15.431,20.971 15.435,20.966 15.438,20.96 C15.442,20.954 15.443,20.947 15.444,20.941 L15.444,19.509 C15.443,19.502 15.442,19.496 15.439,19.491 C15.436,19.485 15.432,19.48 15.427,19.476 C15.422,19.472 15.416,19.469 15.41,19.468 C15.404,19.467 15.397,19.467 15.391,19.468 C14.167,19.757 12.913,19.902 11.655,19.9 C9.49,19.9 8.907,18.884 8.74,18.46 C8.606,18.095 8.521,17.713 8.487,17.326 C8.487,17.319 8.488,17.313 8.491,17.307 C8.493,17.301 8.497,17.295 8.503,17.291 C8.508,17.287 8.514,17.284 8.52,17.283 C8.527,17.282 8.533,17.282 8.54,17.283 C9.743,17.571 10.977,17.715 12.215,17.715 C12.512,17.715 12.809,17.715 13.107,17.707 C14.352,17.673 15.664,17.61 16.89,17.373 C16.92,17.367 16.951,17.362 16.977,17.354 C18.909,16.987 20.748,15.835 20.935,12.918 C20.942,12.803 20.959,11.715 20.959,11.596 C20.96,11.191 21.091,8.723 20.94,7.206 z M17.966,14.485 L15.934,14.485 L15.934,9.563 C15.934,8.527 15.498,7.998 14.61,7.998 C13.634,7.998 13.145,8.624 13.145,9.858 L13.145,12.553 L11.125,12.553 L11.125,9.858 C11.125,8.624 10.635,7.998 9.659,7.998 C8.776,7.998 8.335,8.527 8.334,9.563 L8.334,14.485 L6.304,14.485 L6.304,9.414 C6.304,8.377 6.572,7.554 7.107,6.944 C7.659,6.335 8.382,6.022 9.281,6.022 C10.321,6.022 11.107,6.418 11.631,7.208 L12.136,8.048 L12.643,7.208 C13.166,6.418 13.952,6.022 14.99,6.022 C15.888,6.022 16.612,6.335 17.165,6.944 C17.7,7.554 17.968,8.377 17.968,9.414 L17.966,14.485 z" fill="grey"/>
  </g>
</svg>
