<?xml version="1.0" encoding="UTF-8"?>
<!DOCTYPE svg PUBLIC "-//W3C//DTD SVG 1.1//EN" "http://www.w3.org/Graphics/SVG/1.1/DTD/svg11.dtd">
<svg version="1.1" xmlns="http://www.w3.org/2000/svg" xmlns:xlink="http://www.w3.org/1999/xlink" x="0" y="0" width="24" height="24" viewBox="0, 0, 24, 24">
  <g id="Layer_2">
    <path d="M13,12 C13,12.552 12.552,13 12,13 C11.448,13 11,12.552 11,12 C11,11.448 11.448,11 12,11 C12.552,11 13,11.448 13,12 z" fill="grey"/>
    <path d="M17,12 C17,12.552 16.552,13 16,13 C15.448,13 15,12.552 15,12 C15,11.448 15.448,11 16,11 C16.552,11 17,11.448 17,12 z" fill="grey"/>
    <path d="M9,12 C9,12.552 8.552,13 8,13 C7.448,13 7,12.552 7,12 C7,11.448 7.448,11 8,11 C8.552,11 9,11.448 9,12 z" fill="grey"/>
    <path d="M19.07,4.93 C15.685,1.523 10.357,1.003 6.377,3.692 C2.398,6.381 0.892,11.519 2.79,15.93 C2.886,16.129 2.917,16.352 2.88,16.57 L2,20.8 C1.931,21.129 2.033,21.471 2.27,21.71 C2.464,21.902 2.727,22.007 3,22 L3.2,22 L7.48,21.14 C7.698,21.114 7.918,21.145 8.12,21.23 C12.531,23.128 17.669,21.622 20.358,17.643 C23.047,13.663 22.527,8.335 19.12,4.95 z M19.9,13.29 C19.504,15.709 18.021,17.813 15.875,18.999 C13.73,20.185 11.159,20.321 8.9,19.37 C8.505,19.202 8.08,19.113 7.65,19.11 C7.462,19.111 7.275,19.128 7.09,19.16 L4.27,19.73 L4.84,16.91 C4.954,16.299 4.88,15.669 4.63,15.1 C3.679,12.841 3.815,10.27 5.001,8.125 C6.187,5.979 8.291,4.496 10.71,4.1 L10.71,4.1 C13.253,3.683 15.841,4.516 17.662,6.338 C19.484,8.159 20.317,10.747 19.9,13.29 z" fill="grey"/>
  </g>
</svg>
