<?xml version="1.0" encoding="UTF-8"?>
<!DOCTYPE svg PUBLIC "-//W3C//DTD SVG 1.1//EN" "http://www.w3.org/Graphics/SVG/1.1/DTD/svg11.dtd">
<svg version="1.1" xmlns="http://www.w3.org/2000/svg" xmlns:xlink="http://www.w3.org/1999/xlink" x="0" y="0" width="24" height="24" viewBox="0, 0, 24, 24">
  <g id="Layer_2">
    <path d="M13,11 C13,11.552 12.552,12 12,12 C11.448,12 11,11.552 11,11 C11,10.448 11.448,10 12,10 C12.552,10 13,10.448 13,11 z" fill="grey"/>
    <path d="M17,11 C17,11.552 16.552,12 16,12 C15.448,12 15,11.552 15,11 C15,10.448 15.448,10 16,10 C16.552,10 17,10.448 17,11 z" fill="grey"/>
    <path d="M9,11 C9,11.552 8.552,12 8,12 C7.448,12 7,11.552 7,11 C7,10.448 7.448,10 8,10 C8.552,10 9,10.448 9,11 z" fill="grey"/>
    <path d="M19,3 L5,3 C3.343,3 2,4.343 2,6 L2,21 C2.001,21.361 2.196,21.693 2.51,21.87 C2.659,21.955 2.828,21.999 3,22 C3.179,22 3.356,21.952 3.51,21.86 L8,19.14 C8.166,19.041 8.357,18.993 8.55,19 L19,19 C20.657,19 22,17.657 22,16 L22,6 C22,4.343 20.657,3 19,3 z M20,16 C20,16.552 19.552,17 19,17 L8.55,17 C8.004,17 7.468,17.148 7,17.43 L4,19.23 L4,6 C4,5.448 4.448,5 5,5 L19,5 C19.552,5 20,5.448 20,6 z" fill="grey"/>
  </g>
</svg>
