<?xml version="1.0" encoding="UTF-8"?>
<!DOCTYPE svg PUBLIC "-//W3C//DTD SVG 1.1//EN" "http://www.w3.org/Graphics/SVG/1.1/DTD/svg11.dtd">
<svg version="1.1" xmlns="http://www.w3.org/2000/svg" xmlns:xlink="http://www.w3.org/1999/xlink" x="0" y="0" width="24" height="24" viewBox="0, 0, 24, 24">
  <g id="Layer_2">
    <path d="M0,0 L24,0 L24,24 L0,24 z" fill="#FFFFFF" opacity="0"/>
    <path d="M6,11L6,8L3,8C2.451,8 2,7.549 2,7C2,6.451 2.451,6 3,6L6,6L6,3C6,2.451 6.451,2 7,2C7.549,2 8,2.451 8,3L8,6L11,6L11,3.003C11,2.453 11.451,2 12,2C12.549,2 13,2.453 13,3.003L13,6L16,6L16,3C16,2.451 16.451,2 17,2C17.549,2 18,2.451 18,3L18,6L21,6C21.549,6 22,6.451 22,7C22,7.549 21.549,8 21,8L18,8L18,11L20.997,11C21.547,11 22,11.451 22,12C22,12.549 21.547,13 20.997,13L18,13L18,16L21,16C21.549,16 22,16.451 22,17C22,17.549 21.549,18 21,18L18,18L18,21C18,21.549 17.549,22 17,22C16.451,22 16,21.549 16,21L16,18L13,18L13,20.997C13,21.547 12.549,22 12,22C11.451,22 11,21.547 11,20.997L11,18L8,18L8,21C8,21.549 7.549,22 7,22C6.451,22 6,21.549 6,21L6,18L3,18C2.451,18 2,17.549 2,17C2,16.451 2.451,16 3,16L6,16L6,13L3.01,13C2.462,13 2.01,12.549 2.01,12C2.01,11.451 2.462,11 3.01,11L6,11ZM8,8.56L8,15.44C8,15.747 8.253,16 8.56,16L15.44,16C15.747,16 16,15.747 16,15.44L16,8.56C16,8.253 15.747,8 15.44,8L8.56,8C8.253,8 8,8.253 8,8.56Z" fill="#231F20"/>
  </g>
</svg>
