<?xml version="1.0" encoding="UTF-8"?>
<!DOCTYPE svg PUBLIC "-//W3C//DTD SVG 1.1//EN" "http://www.w3.org/Graphics/SVG/1.1/DTD/svg11.dtd">
<svg version="1.1" xmlns="http://www.w3.org/2000/svg" xmlns:xlink="http://www.w3.org/1999/xlink" x="0" y="0" width="24" height="24" viewBox="0, 0, 24, 24">
  <g id="Layer_2">
    <path d="M24,0 L24,24 L0,24 L0,0 z" fill="#FFFFFF" opacity="0"/>
    <path d="M15.67,4.377l-7.905,0.565l-6.776,3.952l1.694,0l0,5.204c-0.328,0.271 -0.564,0.994 -0.564,1.855c-0,1.091 0.379,1.976 0.846,1.976c0.468,-0 0.847,-0.602 0.847,-1.694c0,-0.86 -0.236,-1.756 -0.564,-2.102l-0,-5.239l6.211,0l6.211,-4.517Zm-3.105,2.823l-2.824,2.259l-4.517,0c-0.055,0.274 -0.07,0.265 -0.07,0.554c-0,0.293 0.03,0.58 0.088,0.858c0.156,-0.007 3.37,-0.283 5.075,1.129c0.331,-1.001 1.248,-2.287 2.55,-3.456c0.119,-0.108 0.141,-0.113 0.262,-0.214c0,-0.565 -0.26,-0.803 -0.564,-1.13Zm4.799,0.565c-1.301,0 -2.486,0.499 -3.388,1.31c-0.172,-0.154 -0.355,-0.291 -0.547,-0.419c-0.068,0.06 -0.141,0.117 -0.209,0.179c-0.918,0.825 -1.639,1.707 -2.102,2.505c0.683,0.312 1.164,0.993 1.164,1.789l0,6.494l3.388,-0l0,-6.494c0,-1.087 0.889,-1.976 1.977,-1.976c1.087,0 1.976,0.889 1.976,1.976l-0,6.494l3.388,-0l-0,-6.776c-0,-2.795 -2.288,-5.082 -5.082,-5.082l-0.565,0Zm-12.122,3.397c-0.19,0.529 -0.3,1.094 -0.3,1.685l-0,6.776l3.388,-0l-0,-6.494c-0,-0.489 0.187,-0.93 0.485,-1.272c-0.869,-0.402 -2.142,-0.662 -3.573,-0.695Z" fill="#231F20"/>
  </g>
</svg>
