<?xml version="1.0" encoding="UTF-8"?>
<!DOCTYPE svg PUBLIC "-//W3C//DTD SVG 1.1//EN" "http://www.w3.org/Graphics/SVG/1.1/DTD/svg11.dtd">
<svg version="1.1" xmlns="http://www.w3.org/2000/svg" xmlns:xlink="http://www.w3.org/1999/xlink" x="0" y="0" width="24" height="24" viewBox="0, 0, 24, 24">
  <g id="Layer_2">
    <path d="M0,0 L24,0 L24,24 L0,24 z" fill="#FFFFFF" opacity="0"/>
    <path d="M19,15 L19,4 C18.999,3.696 18.859,3.409 18.62,3.22 C18.385,3.03 18.076,2.956 17.78,3.02 L8.78,5.02 C8.322,5.123 7.998,5.531 8,6 L8,14.34 C6.598,13.678 4.927,14.021 3.898,15.181 C2.87,16.341 2.73,18.041 3.556,19.354 C4.381,20.667 5.974,21.277 7.465,20.853 C8.957,20.428 9.989,19.071 10,17.52 C10.01,17.347 10.01,17.173 10,17 L10,6.8 L17,5.25 L17,12.34 C15.597,11.678 13.925,12.021 12.897,13.183 C11.868,14.345 11.73,16.046 12.558,17.358 C13.386,18.67 14.981,19.279 16.473,18.851 C17.964,18.423 18.994,17.062 19,15.51 C19.009,15.34 19.009,15.17 19,15 z M6.54,19 C5.756,19 5.107,18.392 5.054,17.61 C5.001,16.828 5.563,16.139 6.34,16.034 C7.117,15.928 7.842,16.442 8,17.21 L8,17.21 C8.01,17.31 8.01,17.41 8,17.51 C8,18.321 7.351,18.984 6.54,19 z M15.54,17 C14.748,17.006 14.087,16.395 14.032,15.605 C13.977,14.815 14.545,14.118 15.33,14.013 C16.116,13.909 16.847,14.433 17,15.21 L17,15.21 C17.01,15.31 17.01,15.41 17,15.51 C16.995,16.331 16.331,16.995 15.51,17 z" fill="grey"/>
  </g>
</svg>
