<?xml version="1.0" encoding="UTF-8"?>
<!DOCTYPE svg PUBLIC "-//W3C//DTD SVG 1.1//EN" "http://www.w3.org/Graphics/SVG/1.1/DTD/svg11.dtd">
<svg version="1.1" xmlns="http://www.w3.org/2000/svg" xmlns:xlink="http://www.w3.org/1999/xlink" x="0" y="0" width="24" height="24" viewBox="0, 0, 24, 24">
  <g id="Layer_2">
    <path d="M0,0 L24,0 L24,24 L0,24 z" fill="#FFFFFF" opacity="0"/>
    <path d="M12,2 C6.477,2 2,6.477 2,12 C2,17.523 6.477,22 12,22 C17.523,22 22,17.523 22,12 C22,6.477 17.523,2 12,2 z M12,20 C7.582,20 4,16.418 4,12 C4,7.582 7.582,4 12,4 C16.418,4 20,7.582 20,12 C20,16.418 16.418,20 12,20 z" fill="grey"/>
    <path d="M15,8 C14.448,8 14,8.448 14,9 L14,15 C14,15.552 14.448,16 15,16 C15.552,16 16,15.552 16,15 L16,9 C16,8.448 15.552,8 15,8 z" fill="grey"/>
    <path d="M9,8 C8.448,8 8,8.448 8,9 L8,15 C8,15.552 8.448,16 9,16 C9.552,16 10,15.552 10,15 L10,9 C10,8.448 9.552,8 9,8 z" fill="grey"/>
  </g>
</svg>
