<?xml version="1.0" encoding="UTF-8"?>
<!DOCTYPE svg PUBLIC "-//W3C//DTD SVG 1.1//EN" "http://www.w3.org/Graphics/SVG/1.1/DTD/svg11.dtd">
<svg version="1.1" xmlns="http://www.w3.org/2000/svg" xmlns:xlink="http://www.w3.org/1999/xlink" x="0" y="0" width="24" height="24" viewBox="0, 0, 24, 24">
  <g id="Layer_2">
    <path d="M0,0 L24,0 L24,24 L0,24 z" fill="#FFFFFF" opacity="0"/>
    <path d="M9,11 C11.209,11 13,9.209 13,7 C13,4.791 11.209,3 9,3 C6.791,3 5,4.791 5,7 C5,9.209 6.791,11 9,11 z M9,5 C10.105,5 11,5.895 11,7 C11,8.105 10.105,9 9,9 C7.895,9 7,8.105 7,7 C7,5.895 7.895,5 9,5 z" fill="grey"/>
    <path d="M17,13 C18.657,13 20,11.657 20,10 C20,8.343 18.657,7 17,7 C15.343,7 14,8.343 14,10 C14,11.657 15.343,13 17,13 z M17,9 C17.552,9 18,9.448 18,10 C18,10.552 17.552,11 17,11 C16.448,11 16,10.552 16,10 C16,9.448 16.448,9 17,9 z" fill="grey"/>
    <path d="M17,14 C15.892,14.001 14.815,14.371 13.94,15.05 C11.937,13.055 8.931,12.46 6.319,13.543 C3.708,14.626 2.004,17.173 2,20 C2,20.552 2.448,21 3,21 C3.552,21 4,20.552 4,20 C4,17.239 6.239,15 9,15 C11.761,15 14,17.239 14,20 C14,20.552 14.448,21 15,21 C15.552,21 16,20.552 16,20 C16.002,18.828 15.706,17.676 15.14,16.65 C16.042,15.937 17.271,15.803 18.306,16.303 C19.341,16.803 19.999,17.851 20,19 C20,19.552 20.448,20 21,20 C21.552,20 22,19.552 22,19 C22,16.239 19.761,14 17,14 z" fill="grey"/>
  </g>
</svg>
