<?xml version="1.0" encoding="UTF-8"?>
<!DOCTYPE svg PUBLIC "-//W3C//DTD SVG 1.1//EN" "http://www.w3.org/Graphics/SVG/1.1/DTD/svg11.dtd">
<svg version="1.1" xmlns="http://www.w3.org/2000/svg" xmlns:xlink="http://www.w3.org/1999/xlink" x="0" y="0" width="24" height="24" viewBox="0, 0, 24, 24">
  <g id="Layer_2">
    <path d="M0,0 L24,0 L24,24 L0,24 z" fill="#FFFFFF" opacity="0"/>
    <path d="M12,2 C7.613,2 4.044,5.533 4,9.92 C4,15.4 11.05,21.5 11.35,21.76 C11.724,22.08 12.276,22.08 12.65,21.76 C13,21.5 20,15.4 20,9.92 C19.956,5.533 16.387,2 12,2 z M12,19.65 C10.33,18.06 6,13.65 6,9.92 C6,6.606 8.686,3.92 12,3.92 C15.314,3.92 18,6.606 18,9.92 C18,13.62 13.67,18.06 12,19.65 z" fill="grey"/>
    <path d="M12,6 C10.067,6 8.5,7.567 8.5,9.5 C8.5,11.433 10.067,13 12,13 C13.933,13 15.5,11.433 15.5,9.5 C15.5,7.567 13.933,6 12,6 z M12,11 C11.172,11 10.5,10.328 10.5,9.5 C10.5,8.672 11.172,8 12,8 C12.828,8 13.5,8.672 13.5,9.5 C13.5,10.328 12.828,11 12,11 z" fill="grey"/>
  </g>
</svg>
