<?xml version="1.0" encoding="UTF-8"?>
<!DOCTYPE svg PUBLIC "-//W3C//DTD SVG 1.1//EN" "http://www.w3.org/Graphics/SVG/1.1/DTD/svg11.dtd">
<svg version="1.1" xmlns="http://www.w3.org/2000/svg" xmlns:xlink="http://www.w3.org/1999/xlink" x="0" y="0" width="24" height="24" viewBox="0, 0, 24, 24">
    <g id="Layer_2">
        <rect x="0" y="0" width="24" height="24" fill="#ffffff" opacity="0"/>
        <path d="M19,3L5,3C3.343,3 2,4.343 2,6L2,14C2,15.657 3.343,17 5,17L19,17C20.657,17 22,15.657 22,14L22,6C22,4.343 20.657,3 19,3ZM20,14C20,14.552 19.552,15 19,15L5,15C4.448,15 4,14.552 4,14L4,6C4,5.448 4.448,5 5,5L19,5C19.552,5 20,5.448 20,6L20,14Z" fill="grey"/>
        <g transform="matrix(0.866025,-0.5,0.5,0.866025,-11.0621,7.17944)">
            <path d="M17,19L7,19C6.448,19 6,19.448 6,20C6,20.552 6.448,21 7,21L17,21C17.552,21 18,20.552 18,20C18,19.448 17.552,19 17,19Z" fill="grey"/>
        </g>
        <g transform="matrix(-0.866025,-0.5,-0.5,0.866025,35.0621,7.17944)">
            <path d="M17,19L7,19C6.448,19 6,19.448 6,20C6,20.552 6.448,21 7,21L17,21C17.552,21 18,20.552 18,20C18,19.448 17.552,19 17,19Z" fill="grey"/>
        </g>
    </g>
</svg>
