<?xml version="1.0" encoding="UTF-8"?>
<!DOCTYPE svg PUBLIC "-//W3C//DTD SVG 1.1//EN" "http://www.w3.org/Graphics/SVG/1.1/DTD/svg11.dtd">
<svg version="1.1" xmlns="http://www.w3.org/2000/svg" xmlns:xlink="http://www.w3.org/1999/xlink" x="0" y="0" width="24" height="24" viewBox="0, 0, 24, 24">
  <g id="Layer_2">
    <path d="M24,24 L-0,24 L-0,0 L24,0 z" fill="#FFFFFF" opacity="0"/>
    <path d="M12,2 C6.477,2 2,6.477 2,12 C2,17.523 6.477,22 12,22 C17.523,22 22,17.523 22,12 C22,6.477 17.523,2 12,2 z M12,20 C7.582,20 4,16.418 4,12 C4,7.582 7.582,4 12,4 C16.418,4 20,7.582 20,12 C20,16.418 16.418,20 12,20 z" fill="grey"/>
    <path d="M12,6 C10.067,6 8.5,7.567 8.5,9.5 C8.5,10.052 8.948,10.5 9.5,10.5 C10.052,10.5 10.5,10.052 10.5,9.5 C10.5,8.672 11.172,8 12,8 C12.828,8 13.5,8.672 13.5,9.5 C13.5,10.328 12.828,11 12,11 C11.448,11 11,11.448 11,12 L11,14 C11,14.552 11.448,15 12,15 C12.552,15 13,14.552 13,14 L13,12.84 C14.671,12.352 15.727,10.707 15.475,8.985 C15.223,7.263 13.741,5.989 12,6 z" fill="grey"/>
    <path d="M13,17 C13,17.552 12.552,18 12,18 C11.448,18 11,17.552 11,17 C11,16.448 11.448,16 12,16 C12.552,16 13,16.448 13,17 z" fill="grey"/>
  </g>
</svg>
