<?xml version="1.0" encoding="UTF-8"?>
<!DOCTYPE svg PUBLIC "-//W3C//DTD SVG 1.1//EN" "http://www.w3.org/Graphics/SVG/1.1/DTD/svg11.dtd">
<svg version="1.1" xmlns="http://www.w3.org/2000/svg" xmlns:xlink="http://www.w3.org/1999/xlink" x="0" y="0" width="24" height="24" viewBox="0, 0, 24, 24">
  <g id="Layer_2">
    <rect width="24" height="24" fill="#FFFFFF" opacity="0"/>
    <path d="M11.64,5.23a1,1,0,0,0-1.41.13l-5,6a1,1,0,0,0,0,1.27l4.83,6a1,1,0,0,0,.78.37,1,1,0,0,0,.78-1.63L7.29,12l4.48-5.37A1,1,0,0,0,11.64,5.23Z" fill="grey"/>
    <path d="M14.29,12l4.48-5.37a1,1,0,0,0-1.54-1.28l-5,6a1,1,0,0,0,0,1.27l4.83,6a1,1,0,0,0,.78.37,1,1,0,0,0,.78-1.63Z" fill="grey"/>
  </g>
</svg>