<?xml version="1.0" encoding="UTF-8"?>
<!DOCTYPE svg PUBLIC "-//W3C//DTD SVG 1.1//EN" "http://www.w3.org/Graphics/SVG/1.1/DTD/svg11.dtd">
<svg version="1.1" xmlns="http://www.w3.org/2000/svg" xmlns:xlink="http://www.w3.org/1999/xlink" x="0" y="0" width="24" height="24" viewBox="0, 0, 24, 24">
  <g id="Layer_2">
    <path d="M0,0 L24,0 L24,24 L0,24 z" fill="#FFFFFF" opacity="0"/>
    <path d="M20.3,13.43 C19.776,13.267 19.217,13.557 19.05,14.08 C18.08,17.045 15.299,19.037 12.18,19 C8.266,19.044 5.055,15.913 5,12 C5.055,8.087 8.266,4.956 12.18,5 C13.878,4.996 15.523,5.587 16.83,6.67 L14.66,6.31 C14.397,6.267 14.128,6.33 13.912,6.486 C13.697,6.642 13.552,6.877 13.51,7.14 C13.467,7.403 13.53,7.672 13.686,7.888 C13.842,8.103 14.077,8.248 14.34,8.29 L18.58,8.99 L18.75,8.99 C18.866,8.99 18.981,8.97 19.09,8.93 C19.127,8.916 19.16,8.896 19.19,8.87 C19.262,8.843 19.329,8.806 19.39,8.76 L19.48,8.65 C19.48,8.6 19.57,8.56 19.61,8.5 C19.65,8.44 19.61,8.4 19.66,8.36 C19.688,8.302 19.711,8.242 19.73,8.18 L20.48,4.18 C20.585,3.628 20.222,3.095 19.67,2.99 C19.118,2.885 18.585,3.248 18.48,3.8 L18.21,5.25 C16.536,3.799 14.395,3 12.18,3 C7.162,2.956 3.055,6.982 3,12 C3.055,17.018 7.162,21.044 12.18,21 C16.19,21.062 19.769,18.497 21,14.68 C21.077,14.421 21.046,14.143 20.914,13.907 C20.782,13.672 20.561,13.5 20.3,13.43 z" fill="grey"/>
  </g>
</svg>
