<?xml version="1.0" encoding="UTF-8"?>
<!DOCTYPE svg PUBLIC "-//W3C//DTD SVG 1.1//EN" "http://www.w3.org/Graphics/SVG/1.1/DTD/svg11.dtd">
<svg version="1.1" xmlns="http://www.w3.org/2000/svg" xmlns:xlink="http://www.w3.org/1999/xlink" x="0" y="0" width="24" height="24" viewBox="0, 0, 24, 24">
  <g id="Layer_2">
    <path d="M0,0 L24,0 L24,24 L0,24 z" fill="#FFFFFF" opacity="0"/>
    <path d="M20.12,8.71 L15.29,3.88 C14.728,3.317 13.965,3.001 13.17,3 L6,3 C4.343,3 3,4.343 3,6 L3,18 C3,19.657 4.343,21 6,21 L18,21 C19.657,21 21,19.657 21,18 L21,10.83 C20.999,10.035 20.683,9.272 20.12,8.71 z M10,19 L10,17 L14,17 L14,19 z M19,18 C19,18.552 18.552,19 18,19 L16,19 L16,16 C16,15.448 15.552,15 15,15 L9,15 C8.448,15 8,15.448 8,16 L8,19 L6,19 C5.448,19 5,18.552 5,18 L5,6 C5,5.448 5.448,5 6,5 L8,5 L8,10 C8,10.552 8.448,11 9,11 L13,11 C13.552,11 14,10.552 14,10 C14,9.448 13.552,9 13,9 L10,9 L10,5 L13.17,5 C13.435,5.004 13.688,5.107 13.88,5.29 L18.71,10.12 C18.897,10.309 19.002,10.564 19,10.83 z" fill="grey"/>
  </g>
</svg>
