<?xml version="1.0" encoding="UTF-8"?>
<!DOCTYPE svg PUBLIC "-//W3C//DTD SVG 1.1//EN" "http://www.w3.org/Graphics/SVG/1.1/DTD/svg11.dtd">
<svg version="1.1" xmlns="http://www.w3.org/2000/svg" xmlns:xlink="http://www.w3.org/1999/xlink" x="0" y="0" width="24" height="24" viewBox="0, 0, 24, 24">
  <g id="Layer_2">
    <path d="M24,24 L-0,24 L-0,0 L24,0 z" fill="#FFFFFF" opacity="0"/>
    <path d="M12.94,22 L11.05,22 C10.122,22 9.37,21.248 9.37,20.32 L9.37,19.23 C9.359,19.099 9.273,18.986 9.15,18.94 C9.025,18.86 8.865,18.86 8.74,18.94 L8,19.74 C7.686,20.056 7.26,20.233 6.815,20.233 C6.37,20.233 5.944,20.056 5.63,19.74 L4.26,18.4 C3.94,18.087 3.759,17.658 3.76,17.21 C3.761,16.757 3.94,16.322 4.26,16 L5,15.26 C5.073,15.147 5.073,15.003 5,14.89 C4.94,14.74 4.84,14.63 4.7,14.63 L3.68,14.63 C2.751,14.625 2,13.869 2,12.94 L2,11.05 C2,10.122 2.752,9.37 3.68,9.37 L4.77,9.37 C4.901,9.359 5.014,9.273 5.06,9.15 C5.14,9.025 5.14,8.865 5.06,8.74 L4.26,8 C3.944,7.686 3.767,7.26 3.767,6.815 C3.767,6.37 3.944,5.944 4.26,5.63 L5.6,4.26 C5.91,3.941 6.335,3.761 6.78,3.76 L6.78,3.76 C7.237,3.758 7.676,3.938 8,4.26 L8.74,5 C8.853,5.073 8.997,5.073 9.11,5 C9.26,4.94 9.37,4.84 9.37,4.7 L9.37,3.68 C9.375,2.751 10.131,2 11.06,2 L13,2 C13.928,2 14.68,2.752 14.68,3.68 L14.68,4.77 C14.691,4.901 14.777,5.014 14.9,5.06 C15.025,5.14 15.185,5.14 15.31,5.06 L16,4.26 C16.314,3.944 16.74,3.767 17.185,3.767 C17.63,3.767 18.056,3.944 18.37,4.26 L19.74,5.6 C20.059,5.914 20.24,6.342 20.24,6.79 C20.25,7.245 20.068,7.684 19.74,8 L19,8.74 C18.927,8.853 18.927,8.997 19,9.11 C19.06,9.26 19.16,9.37 19.3,9.37 L20.39,9.37 C21.292,9.413 22.001,10.157 22,11.06 L22,13 C22,13.928 21.248,14.68 20.32,14.68 L19.23,14.68 C19.099,14.691 18.986,14.777 18.94,14.9 L18.94,14.9 C18.867,15.013 18.867,15.157 18.94,15.27 L19.71,16.04 C20.026,16.354 20.203,16.78 20.203,17.225 C20.203,17.67 20.026,18.096 19.71,18.41 L18.4,19.74 C18.09,20.059 17.665,20.239 17.22,20.24 L17.22,20.24 C16.773,20.234 16.347,20.055 16.03,19.74 L15.26,19 C15.147,18.927 15.003,18.927 14.89,19 C14.74,19.06 14.63,19.16 14.63,19.3 L14.63,20.39 C14.587,21.292 13.843,22.001 12.94,22 z M11.37,20 L12.63,20 L12.63,19.23 C12.639,18.287 13.215,17.442 14.09,17.09 C14.969,16.706 15.992,16.892 16.68,17.56 L17.22,18.1 L18.1,17.22 L17.56,16.67 C16.896,15.993 16.706,14.982 17.08,14.11 L17.08,14.11 L17.08,14.11 C17.435,13.239 18.279,12.667 19.22,12.66 L20,12.66 L20,11.37 L19.23,11.37 C18.287,11.361 17.442,10.785 17.09,9.91 C16.706,9.031 16.892,8.008 17.56,7.32 L18.1,6.78 L17.22,5.9 L16.67,6.44 C15.983,7.067 14.995,7.239 14.137,6.881 C13.279,6.523 12.707,5.699 12.67,4.77 L12.67,4 L11.37,4 L11.37,4.77 C11.361,5.713 10.785,6.558 9.91,6.91 C9.031,7.294 8.008,7.108 7.32,6.44 L6.78,5.9 L5.9,6.78 L6.44,7.33 C7.067,8.017 7.239,9.005 6.881,9.863 C6.523,10.721 5.699,11.293 4.77,11.33 L4,11.33 L4,12.59 L4.77,12.59 C5.713,12.599 6.558,13.175 6.91,14.05 C7.294,14.929 7.108,15.952 6.44,16.64 L5.9,17.18 L6.78,18.06 L7.33,17.52 C8.017,16.893 9.005,16.721 9.863,17.079 C10.721,17.437 11.293,18.261 11.33,19.19 z" fill="grey"/>
    <path d="M12,15.5 C10.067,15.5 8.5,13.933 8.5,12 C8.5,10.067 10.067,8.5 12,8.5 C13.933,8.5 15.5,10.067 15.5,12 C15.5,13.933 13.933,15.5 12,15.5 z M12,10.5 C11.172,10.5 10.5,11.172 10.5,12 C10.5,12.828 11.172,13.5 12,13.5 C12.828,13.5 13.5,12.828 13.5,12 C13.5,11.172 12.828,10.5 12,10.5 z" fill="grey"/>
  </g>
</svg>
