<?xml version="1.0" encoding="UTF-8"?>
<!DOCTYPE svg PUBLIC "-//W3C//DTD SVG 1.1//EN" "http://www.w3.org/Graphics/SVG/1.1/DTD/svg11.dtd">
<svg version="1.1" xmlns="http://www.w3.org/2000/svg" xmlns:xlink="http://www.w3.org/1999/xlink" x="0" y="0" width="24" height="24" viewBox="0, 0, 24, 24">
  <g id="Layer_2">
    <path d="M0,0 L24,0 L24,24 L0,24 z" fill="#FFFFFF" opacity="0"/>
    <path d="M18,21 L6,21 C4.343,21 3,19.657 3,18 L3,6 C3,4.343 4.343,3 6,3 L18,3 C19.657,3 21,4.343 21,6 L21,18 C21,19.657 19.657,21 18,21 z M6,5 C5.448,5 5,5.448 5,6 L5,18 C5,18.552 5.448,19 6,19 L18,19 C18.552,19 19,18.552 19,18 L19,6 C19,5.448 18.552,5 18,5 z" fill="#231F20"/>
  </g>
</svg>
