<?xml version="1.0" encoding="UTF-8"?>
<!DOCTYPE svg PUBLIC "-//W3C//DTD SVG 1.1//EN" "http://www.w3.org/Graphics/SVG/1.1/DTD/svg11.dtd">
<svg version="1.1" xmlns="http://www.w3.org/2000/svg" xmlns:xlink="http://www.w3.org/1999/xlink" x="0" y="0" width="24" height="24" viewBox="0, 0, 24, 24">
  <g id="Layer_2">
    <path d="M24,24 L-0,24 L-0,0 L24,0 z" fill="#FFFFFF" opacity="0"/>
    <path d="M18,3 L6,3 C4.343,3 3,4.343 3,6 L3,18 C3,19.657 4.343,21 6,21 L18,21 C19.657,21 21,19.657 21,18 L21,6 C21,4.343 19.657,3 18,3 z M19,18 C19,18.552 18.552,19 18,19 L6,19 C5.448,19 5,18.552 5,18 L5,6 C5,5.448 5.448,5 6,5 L18,5 C18.552,5 19,5.448 19,6 z" fill="#231F20"/>
    <path d="M14.7,8.39 L10.92,13.39 L9.29,11.28 C8.95,10.844 8.321,10.765 7.885,11.105 C7.449,11.445 7.37,12.074 7.71,12.51 L10.14,15.62 C10.331,15.861 10.622,16.002 10.93,16 L10.93,16 C11.239,15.999 11.531,15.855 11.72,15.61 L16.29,9.61 C16.627,9.168 16.542,8.537 16.1,8.2 C15.658,7.863 15.027,7.948 14.69,8.39 z" fill="#231F20"/>
  </g>
</svg>
