<?xml version="1.0" encoding="UTF-8"?>
<!DOCTYPE svg PUBLIC "-//W3C//DTD SVG 1.1//EN" "http://www.w3.org/Graphics/SVG/1.1/DTD/svg11.dtd">
<svg version="1.1" xmlns="http://www.w3.org/2000/svg" xmlns:xlink="http://www.w3.org/1999/xlink" x="0" y="0" width="24" height="24" viewBox="0, 0, 24, 24">
  <g id="Layer_2">
    <g opacity="0">
      <path d="M0,0 L24,0 L24,24 L0,24 z" fill="#FFFFFF"/>
    </g>
    <path d="M21.66,10.37 C21.694,10.311 21.717,10.247 21.73,10.18 L22.48,6.18 C22.579,5.628 22.212,5.099 21.66,5 C21.108,4.901 20.579,5.268 20.48,5.82 L20.11,7.82 C18.411,4.718 15.088,2.861 11.557,3.04 C8.025,3.219 4.906,5.402 3.53,8.66 C3.324,9.171 3.57,9.752 4.08,9.96 C4.327,10.062 4.604,10.061 4.85,9.958 C5.096,9.855 5.29,9.657 5.39,9.41 C6.492,6.702 9.146,4.949 12.07,5 C14.641,4.988 17.022,6.354 18.31,8.58 L16.66,8.31 C16.108,8.222 15.588,8.598 15.5,9.15 C15.412,9.702 15.788,10.222 16.34,10.31 L20.59,11.02 L20.75,11.02 C20.866,11.021 20.981,11.001 21.09,10.96 C21.127,10.946 21.16,10.926 21.19,10.9 C21.262,10.873 21.329,10.836 21.39,10.79 L21.47,10.69 C21.522,10.641 21.569,10.588 21.61,10.53 C21.634,10.479 21.651,10.425 21.66,10.37 z" fill="grey"/>
    <path d="M19.88,14.07 C19.632,13.968 19.354,13.971 19.108,14.076 C18.862,14.181 18.668,14.381 18.57,14.63 C17.46,17.309 14.829,19.041 11.93,19 C9.359,19.012 6.978,17.646 5.69,15.42 L7.34,15.69 L7.5,15.69 C8.052,15.734 8.536,15.322 8.58,14.77 C8.624,14.218 8.212,13.734 7.66,13.69 L3.41,13 C3.301,12.98 3.189,12.98 3.08,13 L3,13 C2.887,13.03 2.779,13.077 2.68,13.14 L2.68,13.14 C2.613,13.192 2.552,13.253 2.5,13.32 L2.41,13.42 C2.379,13.48 2.356,13.544 2.34,13.61 C2.305,13.661 2.281,13.719 2.27,13.78 L1.52,17.78 C1.455,18.049 1.504,18.332 1.656,18.563 C1.807,18.794 2.048,18.952 2.32,19 L2.5,19 C2.989,19.008 3.412,18.661 3.5,18.18 L3.87,16.18 C5.567,19.283 8.889,21.141 12.42,20.965 C15.952,20.788 19.072,18.606 20.45,15.35 C20.641,14.839 20.387,14.27 19.88,14.07 z" fill="grey"/>
  </g>
</svg>
