<?xml version="1.0" encoding="UTF-8"?>
<!DOCTYPE svg PUBLIC "-//W3C//DTD SVG 1.1//EN" "http://www.w3.org/Graphics/SVG/1.1/DTD/svg11.dtd">
<svg version="1.1" xmlns="http://www.w3.org/2000/svg" xmlns:xlink="http://www.w3.org/1999/xlink" x="0" y="0" width="24" height="24" viewBox="0, 0, 24, 24">
  <g id="Layer_2">
    <path d="M0,0 L24,0 L24,24 L0,24 z" fill="#FFFFFF" opacity="0"/>
    <path d="M12.87,22 C12.387,21.999 11.924,21.809 11.58,21.47 L5.17,15.05 C5.006,14.886 4.903,14.671 4.88,14.44 L4,5.09 C3.973,4.793 4.079,4.5 4.29,4.29 C4.5,4.079 4.793,3.973 5.09,4 L14.44,4.88 C14.671,4.903 14.886,5.006 15.05,5.17 L21.47,11.58 C22.178,12.29 22.178,13.44 21.47,14.15 L14.15,21.47 C13.81,21.808 13.35,21.999 12.87,22 z M6.87,13.89 L12.87,19.89 L19.92,12.84 L13.92,6.84 L6.11,6.11 z" fill="grey"/>
    <path d="M12,10.5 C12,11.328 11.328,12 10.5,12 C9.672,12 9,11.328 9,10.5 C9,9.672 9.672,9 10.5,9 C11.328,9 12,9.672 12,10.5 z" fill="grey"/>
  </g>
</svg>
