<?xml version="1.0" encoding="UTF-8"?>
<!DOCTYPE svg PUBLIC "-//W3C//DTD SVG 1.1//EN" "http://www.w3.org/Graphics/SVG/1.1/DTD/svg11.dtd">
<svg version="1.1" xmlns="http://www.w3.org/2000/svg" xmlns:xlink="http://www.w3.org/1999/xlink" x="0" y="0" width="24" height="24" viewBox="0, 0, 24, 24">
  <g id="Layer_2">
    <rect width="24" height="24" fill="#FFFFFF" opacity="0"/>
    <path d="M21,6H16V4.33A2.42,2.42,0,0,0,13.5,2h-3A2.42,2.42,0,0,0,8,4.33V6H3A1,1,0,0,0,3,8H4V19a3,3,0,0,0,3,3H17a3,3,0,0,0,3-3V8h1a1,1,0,0,0,0-2ZM10,4.33c0-.16.21-.33.5-.33h3c.29,0,.5.17.5.33V6H10ZM18,19a1,1,0,0,1-1,1H7a1,1,0,0,1-1-1V8H18Z" fill="grey"/>
    <path d="M9,17a1,1,0,0,0,1-1V12a1,1,0,0,0-2,0v4A1,1,0,0,0,9,17Z" fill="grey"/>
    <path d="M15,17a1,1,0,0,0,1-1V12a1,1,0,0,0-2,0v4A1,1,0,0,0,15,17Z" fill="grey"/>
  </g>
</svg>
