<?xml version="1.0" encoding="UTF-8"?>
<!DOCTYPE svg PUBLIC "-//W3C//DTD SVG 1.1//EN" "http://www.w3.org/Graphics/SVG/1.1/DTD/svg11.dtd">
<svg version="1.1" xmlns="http://www.w3.org/2000/svg" xmlns:xlink="http://www.w3.org/1999/xlink" x="0" y="0" width="24" height="24" viewBox="0, 0, 24, 24">
  <g id="Layer_2">
    <path d="M0,0 L24,0 L24,24 L0,24 z" fill="#FFFFFF" opacity="0"/>
    <path d="M18,6 L14.41,6 L16.71,3.71 C17.102,3.318 17.102,2.682 16.71,2.29 C16.318,1.898 15.682,1.898 15.29,2.29 L12,5.59 L8.71,2.29 C8.318,1.898 7.682,1.898 7.29,2.29 C6.898,2.682 6.898,3.318 7.29,3.71 L9.59,6 L6,6 C4.343,6 3,7.343 3,9 L3,19 C3,20.657 4.343,22 6,22 L18,22 C19.657,22 21,20.657 21,19 L21,9 C21,7.343 19.657,6 18,6 z M19,19 C19,19.552 18.552,20 18,20 L6,20 C5.448,20 5,19.552 5,19 L5,9 C5,8.448 5.448,8 6,8 L18,8 C18.552,8 19,8.448 19,9 z" fill="grey"/>
  </g>
</svg>
