<?xml version="1.0" encoding="UTF-8"?>
<!DOCTYPE svg PUBLIC "-//W3C//DTD SVG 1.1//EN" "http://www.w3.org/Graphics/SVG/1.1/DTD/svg11.dtd">
<svg version="1.1" xmlns="http://www.w3.org/2000/svg" xmlns:xlink="http://www.w3.org/1999/xlink" x="0" y="0" width="24" height="24" viewBox="0, 0, 24, 24">
  <g id="Layer_2">
    <path d="M24,24 L-0,24 L-0,0 L24,0 z" fill="#FFFFFF" opacity="0"/>
    <path d="M19,6 L5,6 C4.448,6 4,5.552 4,5 L4,5 C4,4.448 4.448,4 5,4 L19,4 C19.552,4 20,4.448 20,5 L20,5 C20,5.552 19.552,6 19,6 z" fill="grey"/>
    <path d="M20,5 L20,7 C20,7.552 19.552,8 19,8 L19,8 C18.448,8 18,7.552 18,7 L18,5 C18,4.448 18.448,4 19,4 L19,4 C19.552,4 20,4.448 20,5 z" fill="grey"/>
    <path d="M6,5 L6,7 C6,7.552 5.552,8 5,8 L5,8 C4.448,8 4,7.552 4,7 L4,5 C4,4.448 4.448,4 5,4 L5,4 C5.552,4 6,4.448 6,5 z" fill="grey"/>
    <path d="M8,14 C7.685,14 7.389,13.852 7.2,13.6 C6.869,13.158 6.958,12.531 7.4,12.2 L11.4,9.2 C11.751,8.943 12.229,8.943 12.58,9.2 L16.58,12.02 C17.029,12.338 17.136,12.96 16.82,13.41 C16.667,13.628 16.433,13.777 16.17,13.822 C15.907,13.867 15.637,13.805 15.42,13.65 L12,11.24 L8.6,13.8 C8.427,13.93 8.216,14 8,14 z" fill="grey"/>
    <path d="M12,21 C11.448,21 11,20.552 11,20 L11,12 C11,11.448 11.448,11 12,11 C12.552,11 13,11.448 13,12 L13,20 C13,20.552 12.552,21 12,21 z" fill="grey"/>
  </g>
</svg>
