<?xml version="1.0" encoding="UTF-8"?>
<!DOCTYPE svg PUBLIC "-//W3C//DTD SVG 1.1//EN" "http://www.w3.org/Graphics/SVG/1.1/DTD/svg11.dtd">
<svg version="1.1" xmlns="http://www.w3.org/2000/svg" xmlns:xlink="http://www.w3.org/1999/xlink" x="0" y="0" width="24" height="24" viewBox="0, 0, 24, 24">
  <g id="Layer_2">
    <path d="M0,0 L24,0 L24,24 L0,24 z" fill="#FFFFFF" opacity="0"/>
    <path d="M20.78,8.37 C20.432,7.939 19.801,7.872 19.37,8.22 C18.939,8.568 18.872,9.199 19.22,9.63 C20.257,11.04 20.257,12.96 19.22,14.37 C18.977,14.67 18.928,15.083 19.095,15.432 C19.261,15.78 19.614,16.001 20,16 C20.303,16.001 20.589,15.865 20.78,15.63 C22.41,13.485 22.41,10.515 20.78,8.37 z" fill="grey"/>
    <path d="M16.47,3.12 C16.161,2.941 15.779,2.941 15.47,3.12 L9,7.57 L4,7.57 C3.448,7.57 3,8.018 3,8.57 L3,15.43 C3,15.982 3.448,16.43 4,16.43 L9,16.43 L15.41,20.83 C15.586,20.944 15.791,21.003 16,21 C16.552,21 17,20.552 17,20 L17,4 C16.999,3.631 16.795,3.293 16.47,3.12 z M15,18.1 L9.9,14.6 C9.732,14.487 9.533,14.428 9.33,14.43 L5,14.43 L5,9.57 L9.33,9.57 C9.533,9.572 9.732,9.513 9.9,9.4 L15,5.9 z" fill="grey"/>
  </g>
</svg>
