<?xml version="1.0" encoding="UTF-8"?>
<!DOCTYPE svg PUBLIC "-//W3C//DTD SVG 1.1//EN" "http://www.w3.org/Graphics/SVG/1.1/DTD/svg11.dtd">
<svg version="1.1" xmlns="http://www.w3.org/2000/svg" xmlns:xlink="http://www.w3.org/1999/xlink" x="0" y="0" width="24" height="24" viewBox="0, 0, 24, 24">
  <g id="Layer_2">
    <path d="M0,0 L24,0 L24,24 L0,24 z" fill="#FFFFFF" opacity="0"/>
    <path d="M18.28,8.37 C17.932,7.939 17.301,7.872 16.87,8.22 C16.439,8.568 16.372,9.199 16.72,9.63 C17.757,11.04 17.757,12.96 16.72,14.37 C16.477,14.67 16.428,15.083 16.595,15.432 C16.761,15.78 17.114,16.001 17.5,16 C17.803,16.001 18.089,15.865 18.28,15.63 C19.91,13.485 19.91,10.515 18.28,8.37 z" fill="grey"/>
    <path d="M19.64,5.23 C19.215,4.877 18.583,4.935 18.23,5.36 C17.877,5.785 17.935,6.417 18.36,6.77 C19.984,8.025 20.955,9.948 21,12 C20.955,14.052 19.984,15.975 18.36,17.23 C18.155,17.4 18.027,17.644 18.002,17.908 C17.978,18.173 18.06,18.436 18.23,18.64 C18.42,18.869 18.703,19 19,19 C19.234,19 19.46,18.919 19.64,18.77 C21.727,17.138 22.963,14.649 23,12 C22.963,9.351 21.727,6.862 19.64,5.23 z" fill="grey"/>
    <path d="M15,3.12 C14.691,2.941 14.309,2.941 14,3.12 L7.52,7.57 L2.52,7.57 C1.968,7.57 1.52,8.018 1.52,8.57 L1.52,15.43 C1.52,15.982 1.968,16.43 2.52,16.43 L7.52,16.43 L13.93,20.83 C14.1,20.94 14.298,20.999 14.5,21 C15.052,21 15.5,20.552 15.5,20 L15.5,4 C15.505,3.638 15.314,3.301 15,3.12 z M13.53,18.12 L8.4,14.6 C8.232,14.487 8.033,14.428 7.83,14.43 L3.5,14.43 L3.5,9.57 L7.83,9.57 C8.033,9.572 8.232,9.513 8.4,9.4 L13.5,5.9 z" fill="grey"/>
  </g>
</svg>
