<?xml version="1.0" encoding="UTF-8"?>
<!DOCTYPE svg PUBLIC "-//W3C//DTD SVG 1.1//EN" "http://www.w3.org/Graphics/SVG/1.1/DTD/svg11.dtd">
<svg version="1.1" xmlns="http://www.w3.org/2000/svg" xmlns:xlink="http://www.w3.org/1999/xlink" x="0" y="0" width="24" height="24" viewBox="0, 0, 24, 24">
  <g id="Layer_2">
    <path d="M21,6 C21,4.343 19.657,3 18,3 L6,3 C4.764,3.007 3.659,3.772 3.216,4.927 C2.774,6.081 3.085,7.389 4,8.22 L4,18 C4,19.657 5.343,21 7,21 L17,21 C18.657,21 20,19.657 20,18 L20,8.22 C20.632,7.655 20.995,6.848 21,6 z M6,5 L18,5 C18.552,5 19,5.448 19,6 C19,6.552 18.552,7 18,7 L6,7 C5.448,7 5,6.552 5,6 C5,5.448 5.448,5 6,5 z M18,18 C18,18.552 17.552,19 17,19 L7,19 C6.448,19 6,18.552 6,18 L6,9 L18,9 z" fill="grey"/>
    <path d="M9.87,12 L14.13,12 C14.61,12 15,12.39 15,12.87 L15,13.13 C15,13.61 14.61,14 14.13,14 L9.87,14 C9.39,14 9,13.61 9,13.13 L9,12.87 C9,12.39 9.39,12 9.87,12 z" fill="grey"/>
  </g>
</svg>
