<?xml version="1.0" encoding="UTF-8"?>
<!DOCTYPE svg PUBLIC "-//W3C//DTD SVG 1.1//EN" "http://www.w3.org/Graphics/SVG/1.1/DTD/svg11.dtd">
<svg version="1.1" xmlns="http://www.w3.org/2000/svg" xmlns:xlink="http://www.w3.org/1999/xlink" x="0" y="0" width="24" height="24" viewBox="0, 0, 24, 24">
  <g id="Layer_2">
    <path d="M0,0 L24,0 L24,24 L0,24 z" fill="#FFFFFF" opacity="0"/>
    <path d="M13,2 C8.116,1.531 3.613,4.675 2.37,9.422 C1.127,14.169 3.512,19.116 8,21.1 C9.258,21.669 10.619,21.975 12,22 C14.198,22 16.335,21.276 18.08,19.94 C18.519,19.606 18.604,18.979 18.27,18.54 C18.109,18.326 17.87,18.186 17.605,18.15 C17.34,18.115 17.072,18.187 16.86,18.35 C14.008,20.504 10.072,20.505 7.219,18.352 C4.366,16.199 3.287,12.415 4.577,9.081 C5.866,5.747 9.211,3.673 12.77,4 C16.931,4.482 20.053,8.032 20,12.22 L20,12.9 C19.998,13.364 19.807,13.807 19.471,14.128 C19.135,14.449 18.684,14.619 18.22,14.6 C17.27,14.496 16.563,13.675 16.6,12.72 L16.6,8.4 C16.6,7.848 16.152,7.4 15.6,7.4 C15.095,7.396 14.666,7.769 14.6,8.27 C13.669,7.394 12.438,6.907 11.16,6.91 C8.763,6.928 6.703,8.616 6.215,10.963 C5.727,13.31 6.942,15.68 9.133,16.652 C11.324,17.625 13.897,16.937 15.31,15 C15.898,15.909 16.864,16.506 17.94,16.624 C19.016,16.742 20.089,16.37 20.86,15.61 C21.601,14.905 22.014,13.923 22,12.9 L22,12.22 C22.046,7.016 18.168,2.612 13,2 z M11.18,15.09 C9.473,15.09 8.09,13.707 8.09,12 C8.09,10.293 9.473,8.91 11.18,8.91 C12.887,8.91 14.27,10.293 14.27,12 C14.265,13.704 12.884,15.085 11.18,15.09 z" fill="grey"/>
  </g>
</svg>
