<?xml version="1.0" encoding="UTF-8"?>
<!DOCTYPE svg PUBLIC "-//W3C//DTD SVG 1.1//EN" "http://www.w3.org/Graphics/SVG/1.1/DTD/svg11.dtd">
<svg version="1.1" xmlns="http://www.w3.org/2000/svg" xmlns:xlink="http://www.w3.org/1999/xlink" x="0" y="0" width="24" height="24" viewBox="0, 0, 24, 24">
  <g id="Layer_2">
    <path d="M0,0 L24,0 L24,24 L0,24 z" fill="#FFFFFF" opacity="0"/>
    <path d="M9.29,21 L9.29,21 C7.621,20.992 6.025,20.315 4.86,19.12 C3.704,18.024 3.031,16.513 2.989,14.921 C2.948,13.328 3.542,11.784 4.64,10.63 L12,3.2 C12.794,2.407 13.878,1.974 15,2 C16.201,2.004 17.351,2.49 18.19,3.35 C19.911,5.007 19.978,7.741 18.34,9.48 L10.94,16.91 C10.461,17.392 9.809,17.662 9.13,17.66 L9.13,17.66 C8.396,17.661 7.693,17.365 7.18,16.84 C6.124,15.818 6.089,14.136 7.1,13.07 L13.93,6.21 C14.331,5.944 14.865,6.001 15.2,6.346 C15.536,6.691 15.578,7.227 15.3,7.62 L8.47,14.48 C8.233,14.765 8.269,15.188 8.55,15.43 C8.691,15.572 8.88,15.654 9.08,15.66 L9.08,15.66 C9.229,15.662 9.373,15.605 9.48,15.5 L16.87,8.07 C17.733,7.111 17.666,5.637 16.72,4.76 C15.843,3.849 14.407,3.783 13.45,4.61 L6.06,12 C5.334,12.78 4.949,13.816 4.991,14.881 C5.032,15.945 5.496,16.949 6.28,17.67 C7.066,18.485 8.147,18.95 9.28,18.96 C10.256,18.968 11.196,18.586 11.89,17.9 L19.28,10.47 C19.669,10.078 20.303,10.076 20.695,10.465 C21.087,10.854 21.089,11.488 20.7,11.88 L13.31,19.31 C12.25,20.389 10.802,20.997 9.29,21 z" fill="grey"/>
  </g>
</svg>
