<?xml version="1.0" encoding="UTF-8"?>
<!DOCTYPE svg PUBLIC "-//W3C//DTD SVG 1.1//EN" "http://www.w3.org/Graphics/SVG/1.1/DTD/svg11.dtd">
<svg version="1.1" xmlns="http://www.w3.org/2000/svg" xmlns:xlink="http://www.w3.org/1999/xlink" x="0" y="0" width="24" height="24" viewBox="0, 0, 24, 24">
  <g id="Layer_2">
    <path d="M24,0 L24,24 L0,24 L0,0 z" fill="#FFFFFF" opacity="0"/>
    <path d="M13.63,12 L17.63,8.21 C17.882,7.975 18.013,7.638 17.988,7.294 C17.963,6.95 17.783,6.636 17.5,6.44 L12.83,3.21 C12.473,2.96 12.007,2.929 11.62,3.13 C11.246,3.324 11.008,3.708 11,4.13 L11,10.33 L7.81,6.33 C7.451,5.899 6.811,5.841 6.38,6.2 C5.949,6.559 5.891,7.199 6.25,7.63 L9.72,12 L6.22,16.43 C5.88,16.861 5.951,17.487 6.38,17.83 C6.562,17.953 6.78,18.013 7,18 C7.304,17.999 7.591,17.859 7.78,17.62 L11,13.56 L11,19.85 C11.005,20.487 11.523,21 12.16,21 C12.4,21.001 12.634,20.928 12.83,20.79 L17.47,17.61 C17.75,17.412 17.929,17.101 17.96,16.76 C17.987,16.421 17.862,16.088 17.62,15.85 z M13,5.76 L15.5,7.49 L13,9.85 z M13,18.25 L13,14.18 L15.47,16.56 z" fill="grey"/>
  </g>
</svg>
