<?xml version="1.0" encoding="UTF-8"?>
<!DOCTYPE svg PUBLIC "-//W3C//DTD SVG 1.1//EN" "http://www.w3.org/Graphics/SVG/1.1/DTD/svg11.dtd">
<svg version="1.1" xmlns="http://www.w3.org/2000/svg" xmlns:xlink="http://www.w3.org/1999/xlink" x="0" y="0" width="24" height="24" viewBox="0, 0, 24, 24">
  <g id="Layer_2">
    <path d="M24,0 L24,24 L0,24 L0,0 z" fill="#FFFFFF" opacity="0"/>
    <path d="M8.64,5.23 C8.436,5.06 8.173,4.978 7.908,5.002 C7.644,5.027 7.4,5.155 7.23,5.36 L2.23,11.36 C1.927,11.729 1.927,12.261 2.23,12.63 L7.06,18.63 C7.251,18.865 7.537,19.001 7.84,19 C8.226,19.001 8.579,18.78 8.745,18.432 C8.912,18.083 8.863,17.67 8.62,17.37 L4.29,12 L8.77,6.64 C8.94,6.436 9.022,6.173 8.998,5.908 C8.973,5.644 8.845,5.4 8.64,5.23 z" fill="grey"/>
    <path d="M21.78,11.37 L17,5.37 C16.833,5.163 16.591,5.03 16.326,5.002 C16.062,4.974 15.797,5.052 15.59,5.22 C15.383,5.387 15.25,5.629 15.222,5.894 C15.194,6.158 15.272,6.423 15.44,6.63 L19.71,12 L15.23,17.37 C15.06,17.574 14.978,17.837 15.002,18.102 C15.027,18.366 15.155,18.61 15.36,18.78 C15.541,18.925 15.768,19.003 16,19 C16.297,19 16.58,18.869 16.77,18.64 L21.77,12.64 C22.076,12.273 22.08,11.741 21.78,11.37 z" fill="grey"/>
  </g>
</svg>
