<?xml version="1.0" encoding="UTF-8"?>
<!DOCTYPE svg PUBLIC "-//W3C//DTD SVG 1.1//EN" "http://www.w3.org/Graphics/SVG/1.1/DTD/svg11.dtd">
<svg version="1.1" xmlns="http://www.w3.org/2000/svg" xmlns:xlink="http://www.w3.org/1999/xlink" x="0" y="0" width="24" height="24" viewBox="0, 0, 24, 24">
  <g id="Layer_2">
    <path d="M24,24 L-0,24 L-0,0 L24,0 z" fill="#FFFFFF" opacity="0"/>
    <path d="M22,12 C22,6.477 17.523,2 12,2 L12,2 C6.477,2 2,6.477 2,12 C2,17.523 6.477,22 12,22 L12,22 C17.523,22 22,17.523 22,12 z M19.93,11 L17,11 C16.835,8.648 16.029,6.386 14.67,4.46 C17.518,5.471 19.553,8.001 19.93,11 z M9.08,13 L15,13 C14.744,15.471 13.691,17.791 12,19.61 C10.31,17.798 9.281,15.469 9.08,13 z M9.08,11 C9.313,8.542 10.338,6.226 12,4.4 C13.705,6.206 14.76,8.528 15,11 z M9.44,4.43 C8.074,6.367 7.255,8.637 7.07,11 L4.07,11 C4.455,7.963 6.54,5.412 9.44,4.43 z M4.07,13 L7.07,13 C7.235,15.361 8.048,17.631 9.42,19.56 C6.531,18.573 4.456,16.028 4.07,13 z M14.62,19.55 C15.988,17.621 16.811,15.358 17,13 L19.95,13 C19.564,16.02 17.498,18.559 14.62,19.55 z" fill="grey"/>
  </g>
</svg>
