<?xml version="1.0" encoding="UTF-8"?>
<!DOCTYPE svg PUBLIC "-//W3C//DTD SVG 1.1//EN" "http://www.w3.org/Graphics/SVG/1.1/DTD/svg11.dtd">
<svg version="1.1" xmlns="http://www.w3.org/2000/svg" xmlns:xlink="http://www.w3.org/1999/xlink" x="0" y="0" width="24" height="24" viewBox="0, 0, 24, 24">
  <g id="Layer_2">
    <path d="M24,24 L-0,24 L-0,0 L24,0 z" fill="#FFFFFF" opacity="0"/>
    <path d="M20,14 L15.7,14 L16.43,10 L20,10 C20.552,10 21,9.552 21,9 C21,8.448 20.552,8 20,8 L16.79,8 L17.48,4.19 C17.535,3.92 17.476,3.639 17.317,3.413 C17.158,3.188 16.913,3.039 16.64,3 C16.368,2.935 16.082,2.987 15.85,3.143 C15.619,3.299 15.463,3.544 15.42,3.82 L14.67,8 L10.79,8 L11.48,4.19 C11.535,3.92 11.476,3.639 11.317,3.413 C11.158,3.188 10.913,3.039 10.64,3 C10.368,2.935 10.082,2.987 9.85,3.143 C9.619,3.299 9.463,3.544 9.42,3.82 L8.67,8 L4,8 C3.448,8 3,8.448 3,9 C3,9.552 3.448,10 4,10 L8.3,10 L7.57,14 L4,14 C3.448,14 3,14.448 3,15 C3,15.552 3.448,16 4,16 L7.21,16 L6.52,19.81 C6.465,20.08 6.524,20.361 6.683,20.587 C6.842,20.812 7.087,20.961 7.36,21 L7.36,21 C7.632,21.065 7.918,21.013 8.15,20.857 C8.381,20.701 8.537,20.456 8.58,20.18 L9.33,16 L13.21,16 L12.52,19.81 C12.465,20.08 12.524,20.361 12.683,20.587 C12.842,20.812 13.087,20.961 13.36,21 L13.36,21 C13.632,21.065 13.918,21.013 14.15,20.857 C14.381,20.701 14.537,20.456 14.58,20.18 L15.33,16 L20,16 C20.552,16 21,15.552 21,15 C21,14.448 20.552,14 20,14 z M9.7,14 L10.43,10 L14.3,10 L13.57,14 z" fill="grey"/>
  </g>
</svg>
