<?xml version="1.0" encoding="UTF-8"?>
<!DOCTYPE svg PUBLIC "-//W3C//DTD SVG 1.1//EN" "http://www.w3.org/Graphics/SVG/1.1/DTD/svg11.dtd">
<svg version="1.1" xmlns="http://www.w3.org/2000/svg" xmlns:xlink="http://www.w3.org/1999/xlink" x="0" y="0" width="24" height="24" viewBox="0, 0, 24, 24">
  <g id="Layer_2">
    <path d="M0,0 L24,0 L24,24 L0,24 z" fill="#FFFFFF" opacity="0"/>
    <path d="M12,2 C6.378,2.109 1.905,6.748 2,12.37 L2,17 C2,19.209 3.791,21 6,21 C8.209,21 10,19.209 10,17 C10,14.791 8.209,13 6,13 C5.295,13.003 4.604,13.196 4,13.56 L4,12.37 C3.905,7.852 7.483,4.109 12,4 C16.517,4.109 20.095,7.852 20,12.37 L20,13.56 C19.396,13.196 18.705,13.003 18,13 C15.791,13 14,14.791 14,17 C14,19.209 15.791,21 18,21 C20.209,21 22,19.209 22,17 L22,12.37 C22.095,6.748 17.622,2.109 12,2 z M6,15 C7.105,15 8,15.895 8,17 C8,18.105 7.105,19 6,19 C4.895,19 4,18.105 4,17 C4,15.895 4.895,15 6,15 z M18,19 C16.895,19 16,18.105 16,17 C16,15.895 16.895,15 18,15 C19.105,15 20,15.895 20,17 C20,18.105 19.105,19 18,19 z" fill="grey"/>
  </g>
</svg>
