<?xml version="1.0" encoding="UTF-8"?>
<!DOCTYPE svg PUBLIC "-//W3C//DTD SVG 1.1//EN" "http://www.w3.org/Graphics/SVG/1.1/DTD/svg11.dtd">
<svg version="1.1" xmlns="http://www.w3.org/2000/svg" xmlns:xlink="http://www.w3.org/1999/xlink" x="0" y="0" width="24" height="24" viewBox="0, 0, 24, 24">
  <g id="Layer_2">
    <path d="M0,0 L24,0 L24,24 L0,24 z" fill="#FFFFFF" opacity="0"/>
    <path d="M12,21 L12,21 C11.734,21.002 11.479,20.897 11.29,20.71 L3.52,12.93 C1.492,10.88 1.492,7.58 3.52,5.53 C5.565,3.491 8.875,3.491 10.92,5.53 L12,6.61 L13.08,5.53 C15.125,3.491 18.435,3.491 20.48,5.53 C22.508,7.58 22.508,10.88 20.48,12.93 L12.71,20.71 C12.521,20.897 12.266,21.002 12,21 z M7.22,6 C6.365,5.996 5.544,6.335 4.94,6.94 C3.683,8.204 3.683,10.246 4.94,11.51 L12,18.58 L19.06,11.51 C20.317,10.246 20.317,8.204 19.06,6.94 C17.78,5.731 15.78,5.731 14.5,6.94 L12.71,8.74 C12.522,8.929 12.267,9.036 12,9.036 C11.733,9.036 11.478,8.929 11.29,8.74 L9.5,6.94 C8.896,6.335 8.075,5.996 7.22,6 z" fill="grey"/>
  </g>
</svg>
