<?xml version="1.0" encoding="UTF-8"?>
<!DOCTYPE svg PUBLIC "-//W3C//DTD SVG 1.1//EN" "http://www.w3.org/Graphics/SVG/1.1/DTD/svg11.dtd">
<svg version="1.1" xmlns="http://www.w3.org/2000/svg" xmlns:xlink="http://www.w3.org/1999/xlink" x="0" y="0" width="24" height="24" viewBox="0, 0, 24, 24">
  <g id="Capa_1">
    <path d="M12,2 C6.477,2 2,6.477 2,12 C2,17.523 6.477,22 12,22 C17.523,22 22,17.523 22,12 C22,6.477 17.523,2 12,2 z M12,20 C7.582,20 4,16.418 4,12 C4,7.582 7.582,4 12,4 C16.418,4 20,7.582 20,12 C20,16.418 16.418,20 12,20 z" fill="#000000"/>
    <path d="M13,8 C13,8.552 12.552,9 12,9 C11.448,9 11,8.552 11,8 C11,7.448 11.448,7 12,7 C12.552,7 13,7.448 13,8 z" fill="#000000"/>
    <path d="M12,10 C11.448,10 11,10.448 11,11 L11,16 C11,16.552 11.448,17 12,17 C12.552,17 13,16.552 13,16 L13,11 C13,10.448 12.552,10 12,10 z" fill="#000000"/>
  </g>
</svg>
