<?xml version="1.0" encoding="UTF-8"?>
<!DOCTYPE svg PUBLIC "-//W3C//DTD SVG 1.1//EN" "http://www.w3.org/Graphics/SVG/1.1/DTD/svg11.dtd">
<svg version="1.1" xmlns="http://www.w3.org/2000/svg" xmlns:xlink="http://www.w3.org/1999/xlink" x="0" y="0" width="24" height="24" viewBox="0, 0, 24, 24">
  <g id="Layer_2">
    <path d="M24,24 L-0,24 L-0,0 L24,0 z" fill="#FFFFFF" opacity="0"/>
    <path d="M5,7 C5,7.552 4.552,8 4,8 C3.448,8 3,7.552 3,7 C3,6.448 3.448,6 4,6 C4.552,6 5,6.448 5,7 z" fill="grey"/>
    <path d="M5,12 C5,12.552 4.552,13 4,13 C3.448,13 3,12.552 3,12 C3,11.448 3.448,11 4,11 C4.552,11 5,11.448 5,12 z" fill="grey"/>
    <path d="M5,17 C5,17.552 4.552,18 4,18 C3.448,18 3,17.552 3,17 C3,16.448 3.448,16 4,16 C4.552,16 5,16.448 5,17 z" fill="grey"/>
    <path d="M7.94,11 L20.06,11 C20.579,11 21,11.421 21,11.94 L21,12.06 C21,12.579 20.579,13 20.06,13 L7.94,13 C7.421,13 7,12.579 7,12.06 L7,11.94 C7,11.421 7.421,11 7.94,11 z" fill="grey"/>
    <path d="M7.94,16 L20.06,16 C20.579,16 21,16.421 21,16.94 L21,17.06 C21,17.579 20.579,18 20.06,18 L7.94,18 C7.421,18 7,17.579 7,17.06 L7,16.94 C7,16.421 7.421,16 7.94,16 z" fill="grey"/>
    <path d="M7.94,6 L20.06,6 C20.579,6 21,6.421 21,6.94 L21,7.06 C21,7.579 20.579,8 20.06,8 L7.94,8 C7.421,8 7,7.579 7,7.06 L7,6.94 C7,6.421 7.421,6 7.94,6 z" fill="grey"/>
  </g>
</svg>
