<?xml version="1.0" encoding="UTF-8"?>
<!DOCTYPE svg PUBLIC "-//W3C//DTD SVG 1.1//EN" "http://www.w3.org/Graphics/SVG/1.1/DTD/svg11.dtd">
<svg version="1.1" xmlns="http://www.w3.org/2000/svg" xmlns:xlink="http://www.w3.org/1999/xlink" x="0" y="0" width="24" height="24" viewBox="0, 0, 24, 24">
  <g id="Layer_2">
    <path d="M24,0 L24,24 L0,24 L0,0 z" fill="#FFFFFF" opacity="0"/>
    <path d="M19,9 C17.732,9.004 16.603,9.804 16.18,11 L3,11 C2.448,11 2,11.448 2,12 C2,12.552 2.448,13 3,13 L16.18,13 C16.689,14.439 18.198,15.267 19.685,14.923 C21.172,14.578 22.164,13.172 21.989,11.655 C21.813,10.139 20.527,8.996 19,9 z M19,13 C18.448,13 18,12.552 18,12 C18,11.448 18.448,11 19,11 C19.552,11 20,11.448 20,12 C20,12.552 19.552,13 19,13 z" fill="grey"/>
    <path d="M3,7 L4.18,7 C4.611,8.186 5.738,8.976 7,8.976 C8.262,8.976 9.389,8.186 9.82,7 L21,7 C21.552,7 22,6.552 22,6 C22,5.448 21.552,5 21,5 L9.82,5 C9.389,3.814 8.262,3.024 7,3.024 C5.738,3.024 4.611,3.814 4.18,5 L3,5 C2.448,5 2,5.448 2,6 C2,6.552 2.448,7 3,7 z M7,5 C7.552,5 8,5.448 8,6 C8,6.552 7.552,7 7,7 C6.448,7 6,6.552 6,6 C6,5.448 6.448,5 7,5 z" fill="grey"/>
    <path d="M21,17 L13.82,17 C13.389,15.814 12.262,15.024 11,15.024 C9.738,15.024 8.611,15.814 8.18,17 L3,17 C2.448,17 2,17.448 2,18 C2,18.552 2.448,19 3,19 L8.18,19 C8.611,20.186 9.738,20.976 11,20.976 C12.262,20.976 13.389,20.186 13.82,19 L21,19 C21.552,19 22,18.552 22,18 C22,17.448 21.552,17 21,17 z M11,19 C10.448,19 10,18.552 10,18 C10,17.448 10.448,17 11,17 C11.552,17 12,17.448 12,18 C12,18.552 11.552,19 11,19 z" fill="grey"/>
  </g>
</svg>
