<?xml version="1.0" encoding="UTF-8"?>
<!DOCTYPE svg PUBLIC "-//W3C//DTD SVG 1.1//EN" "http://www.w3.org/Graphics/SVG/1.1/DTD/svg11.dtd">
<svg version="1.1" xmlns="http://www.w3.org/2000/svg" xmlns:xlink="http://www.w3.org/1999/xlink" x="0" y="0" width="24" height="24" viewBox="0, 0, 24, 24">
  <g id="Layer_2">
    <path d="M0,0 L24,0 L24,24 L0,24 z" fill="#FFFFFF" opacity="0"/>
    <path d="M17.4,22 C8.899,21.989 2.011,15.101 2,6.6 C2,4.059 4.059,2 6.6,2 C6.858,1.998 7.116,2.021 7.37,2.07 C7.615,2.106 7.856,2.167 8.09,2.25 C8.424,2.367 8.671,2.653 8.74,3 L10.11,9 C10.185,9.331 10.087,9.677 9.85,9.92 C9.72,10.06 9.71,10.07 8.48,10.71 C9.465,12.871 11.193,14.606 13.35,15.6 C14,14.36 14.01,14.35 14.15,14.22 C14.393,13.983 14.739,13.885 15.07,13.96 L21.07,15.33 C21.406,15.408 21.678,15.654 21.79,15.98 C21.874,16.217 21.938,16.462 21.98,16.71 C22.02,16.961 22.04,17.215 22.04,17.47 C22.002,19.999 19.929,22.022 17.4,22 z M6.6,4 C5.166,4.005 4.005,5.166 4,6.6 C4.006,13.998 10.002,19.994 17.4,20 C18.834,19.995 19.995,18.834 20,17.4 C20,17.29 20,17.18 20,17.07 L15.36,16 L15.07,16.55 C14.62,17.42 14.29,18.05 13.45,17.71 C10.094,16.509 7.457,13.861 6.27,10.5 C5.91,9.72 6.59,9.36 7.45,8.91 L8,8.64 L6.93,4 z" fill="grey"/>
  </g>
</svg>
