<?xml version="1.0" encoding="UTF-8"?>
<!DOCTYPE svg PUBLIC "-//W3C//DTD SVG 1.1//EN" "http://www.w3.org/Graphics/SVG/1.1/DTD/svg11.dtd">
<svg version="1.1" xmlns="http://www.w3.org/2000/svg" xmlns:xlink="http://www.w3.org/1999/xlink" x="0" y="0" width="24" height="24" viewBox="0, 0, 24, 24">
  <g id="Layer_2">
    <path d="M0,0 L24,0 L24,24 L0,24 z" fill="#FFFFFF" opacity="0"/>
    <path d="M12,13 C12.552,13 13,12.552 13,12 L13,2 C13,1.448 12.552,1 12,1 C11.448,1 11,1.448 11,2 L11,12 C11,12.552 11.448,13 12,13 z" fill="grey"/>
    <path d="M16.59,3.11 C16.098,2.856 15.494,3.048 15.24,3.54 C14.986,4.032 15.178,4.636 15.67,4.89 C18.95,6.583 20.645,10.3 19.774,13.887 C18.903,17.473 15.691,19.999 12,19.999 C8.309,19.999 5.097,17.473 4.226,13.887 C3.355,10.3 5.05,6.583 8.33,4.89 C8.822,4.636 9.014,4.032 8.76,3.54 C8.506,3.048 7.902,2.856 7.41,3.11 C3.312,5.227 1.193,9.874 2.283,14.356 C3.372,18.839 7.387,21.994 12,21.994 C16.613,21.994 20.628,18.839 21.717,14.356 C22.807,9.874 20.688,5.227 16.59,3.11 z" fill="grey"/>
  </g>
</svg>
