<?xml version="1.0" encoding="UTF-8"?>
<!DOCTYPE svg PUBLIC "-//W3C//DTD SVG 1.1//EN" "http://www.w3.org/Graphics/SVG/1.1/DTD/svg11.dtd">
<svg version="1.1" xmlns="http://www.w3.org/2000/svg" xmlns:xlink="http://www.w3.org/1999/xlink" x="0" y="0" width="24" height="24" viewBox="0, 0, 24, 24">
  <g id="Layer_2">
    <path d="M0,0 L24,0 L24,24 L0,24 z" fill="#FFFFFF" opacity="0"/>
    <path d="M17.91,5 L5.91,5 L7.21,3.71 C7.602,3.318 7.602,2.682 7.21,2.29 C6.818,1.898 6.182,1.898 5.79,2.29 L2.79,5.29 C2.601,5.478 2.494,5.733 2.494,6 C2.494,6.267 2.601,6.522 2.79,6.71 L5.79,9.71 C5.978,9.899 6.233,10.006 6.5,10.006 C6.767,10.006 7.022,9.899 7.21,9.71 C7.399,9.522 7.506,9.267 7.506,9 C7.506,8.733 7.399,8.478 7.21,8.29 L5.91,7 L17.91,7 C18.772,6.983 19.484,7.668 19.5,8.53 L19.5,11 C19.5,11.552 19.948,12 20.5,12 C21.052,12 21.5,11.552 21.5,11 L21.5,8.53 C21.484,6.564 19.876,4.983 17.91,5 z" fill="grey"/>
    <path d="M18.21,14.29 C17.818,13.898 17.182,13.898 16.79,14.29 C16.398,14.682 16.398,15.318 16.79,15.71 L18.09,17 L6.09,17 C5.228,17.017 4.516,16.332 4.5,15.47 L4.5,13 C4.5,12.448 4.052,12 3.5,12 C2.948,12 2.5,12.448 2.5,13 L2.5,15.47 C2.516,17.436 4.124,19.017 6.09,19 L18.09,19 L16.79,20.29 C16.601,20.478 16.494,20.733 16.494,21 C16.494,21.267 16.601,21.522 16.79,21.71 C16.978,21.899 17.233,22.006 17.5,22.006 C17.767,22.006 18.022,21.899 18.21,21.71 L21.21,18.71 C21.399,18.522 21.506,18.267 21.506,18 C21.506,17.733 21.399,17.478 21.21,17.29 z" fill="grey"/>
  </g>
</svg>
