<?xml version="1.0" encoding="UTF-8"?>
<!DOCTYPE svg PUBLIC "-//W3C//DTD SVG 1.1//EN" "http://www.w3.org/Graphics/SVG/1.1/DTD/svg11.dtd">
<svg version="1.1" xmlns="http://www.w3.org/2000/svg" xmlns:xlink="http://www.w3.org/1999/xlink" x="0" y="0" width="24" height="24" viewBox="0, 0, 24, 24">
  <g id="Capa_1">
    <path d="M6,20 C4.895,20 4,19.105 4,18 C4,16.895 4.895,16 6,16 C7.105,16 8,16.895 8,18 C8,19.105 7.105,20 6,20 z" fill="#000000"/>
    <path d="M4,9.5 C9.799,9.5 14.5,14.201 14.5,20 L11.5,20 C11.5,15.858 8.142,12.5 4,12.5 L4,9.5 z" fill="#000000"/>
    <path d="M4,3.5 C13.113,3.5 20.5,10.887 20.5,20 L17.5,20 C17.5,12.544 11.456,6.5 4,6.5 L4,3.5 z" fill="#000000"/>
  </g>
</svg>
