<?xml version="1.0" encoding="UTF-8"?>
<!DOCTYPE svg PUBLIC "-//W3C//DTD SVG 1.1//EN" "http://www.w3.org/Graphics/SVG/1.1/DTD/svg11.dtd">
<svg version="1.1" xmlns="http://www.w3.org/2000/svg" xmlns:xlink="http://www.w3.org/1999/xlink" x="0" y="0" width="24" height="24" viewBox="0, 0, 24, 24">
  <g id="Layer_2">
    <path d="M24,0 L24,24 L0,24 L0,0 z" fill="#FFFFFF" opacity="0"/>
    <path d="M17.56,21 C17.4,21.001 17.242,20.963 17.1,20.89 L12,18.22 L6.9,20.89 C6.562,21.068 6.153,21.037 5.844,20.812 C5.536,20.587 5.383,20.206 5.45,19.83 L6.45,14.2 L2.33,10.2 C2.068,9.939 1.972,9.554 2.08,9.2 C2.198,8.837 2.512,8.574 2.89,8.52 L8.59,7.69 L11.1,2.56 C11.267,2.215 11.617,1.996 12,1.996 C12.383,1.996 12.733,2.215 12.9,2.56 L15.44,7.68 L21.14,8.51 C21.518,8.564 21.832,8.827 21.95,9.19 C22.058,9.544 21.962,9.929 21.7,10.19 L17.58,14.19 L18.58,19.82 C18.653,20.203 18.497,20.593 18.18,20.82 C17.999,20.947 17.781,21.01 17.56,21 z M12,16.1 C12.16,16.096 12.319,16.134 12.46,16.21 L16.23,18.21 L15.51,14 C15.453,13.674 15.562,13.34 15.8,13.11 L18.8,10.18 L14.6,9.56 C14.288,9.497 14.024,9.289 13.89,9 L12,5.25 L10.11,9 C9.963,9.292 9.683,9.493 9.36,9.54 L5.16,10.16 L8.16,13.09 C8.398,13.32 8.507,13.654 8.45,13.98 L7.73,18.14 L11.5,16.14 C11.66,16.081 11.833,16.067 12,16.1 z" fill="grey"/>
  </g>
</svg>
