<?xml version="1.0" encoding="UTF-8"?>
<!DOCTYPE svg PUBLIC "-//W3C//DTD SVG 1.1//EN" "http://www.w3.org/Graphics/SVG/1.1/DTD/svg11.dtd">
<svg version="1.1" xmlns="http://www.w3.org/2000/svg" xmlns:xlink="http://www.w3.org/1999/xlink" x="0" y="0" width="24" height="24" viewBox="0, 0, 24, 24">
  <g id="Layer_2">
    <path d="M0,0 L24,0 L24,24 L0,24" fill="#FFFFFF" opacity="0"/>
    <path d="M8.51,20 L8.43,20 C6.818,19.986 5.23,19.614 3.78,18.91 C3.233,18.653 2.916,18.069 3,17.47 C3.091,16.867 3.559,16.391 4.16,16.29 C5.059,16.17 5.923,15.867 6.7,15.4 C3.952,13.252 2.604,9.769 3.19,6.33 C3.27,5.784 3.66,5.335 4.19,5.18 C4.706,5.018 5.268,5.179 5.62,5.59 C6.8,7.138 8.565,8.132 10.5,8.34 C10.546,7.162 11.052,6.049 11.91,5.24 C12.775,4.411 13.937,3.965 15.135,4.001 C16.332,4.036 17.466,4.551 18.28,5.43 C18.495,5.62 18.804,5.66 19.06,5.53 C19.547,5.3 20.122,5.372 20.537,5.715 C20.952,6.057 21.133,6.608 21,7.13 C20.769,8.08 20.332,8.968 19.72,9.73 C19.439,15.652 14.433,20.237 8.51,20 z M8.51,18 L8.59,18 C10.938,18.081 13.222,17.218 14.929,15.604 C16.637,13.99 17.628,11.759 17.68,9.41 C17.697,9.091 17.828,8.789 18.05,8.56 C18.294,8.251 18.502,7.916 18.67,7.56 C17.941,7.561 17.247,7.252 16.76,6.71 C16.293,6.246 15.658,5.991 15,6 C14.335,5.983 13.691,6.231 13.21,6.69 C12.556,7.311 12.282,8.233 12.49,9.11 L12.75,10.25 L11.58,10.33 C9.154,10.528 6.763,9.65 5.04,7.93 C4.966,10.614 6.408,13.112 8.77,14.39 L9.72,14.93 L9.09,15.83 C8.409,16.724 7.475,17.392 6.41,17.75 C7.093,17.921 7.796,18.005 8.5,18 z M19,6.65 L19,6.65 z" fill="grey"/>
  </g>
</svg>
