<?xml version="1.0" encoding="UTF-8"?>
<!DOCTYPE svg PUBLIC "-//W3C//DTD SVG 1.1//EN" "http://www.w3.org/Graphics/SVG/1.1/DTD/svg11.dtd">
<svg version="1.1" xmlns="http://www.w3.org/2000/svg" xmlns:xlink="http://www.w3.org/1999/xlink" x="0" y="0" width="24" height="24" viewBox="0, 0, 24, 24">
  <g id="Layer_2">
    <path d="M0,0 L24,0 L24,24 L0,24 z" fill="#FFFFFF" opacity="0"/>
    <path d="M4.71,3.29 C4.318,2.898 3.682,2.898 3.29,3.29 C2.898,3.682 2.898,4.318 3.29,4.71 L19.29,20.71 C19.478,20.899 19.733,21.006 20,21.006 C20.267,21.006 20.522,20.899 20.71,20.71 C20.899,20.522 21.006,20.267 21.006,20 C21.006,19.733 20.899,19.478 20.71,19.29 z" fill="grey"/>
    <path d="M16.91,14.08 L18.35,15.52 C19.904,13.382 19.876,10.478 18.28,8.37 C17.932,7.939 17.301,7.872 16.87,8.22 C16.439,8.568 16.372,9.199 16.72,9.63 C17.68,10.938 17.755,12.695 16.91,14.08 z" fill="grey"/>
    <path d="M21,12 C20.979,13.635 20.344,15.202 19.22,16.39 L20.64,17.81 C22.136,16.243 22.98,14.166 23,12 C22.963,9.351 21.727,6.862 19.64,5.23 C19.215,4.877 18.583,4.935 18.23,5.36 C17.877,5.785 17.935,6.417 18.36,6.77 C19.984,8.025 20.955,9.948 21,12 z" fill="grey"/>
    <path d="M13.5,18.1 L8.4,14.6 C8.232,14.487 8.033,14.428 7.83,14.43 L3.5,14.43 L3.5,9.57 L6.74,9.57 L4.74,7.57 L2.5,7.57 C1.948,7.57 1.5,8.018 1.5,8.57 L1.5,15.43 C1.5,15.982 1.948,16.43 2.5,16.43 L7.5,16.43 L13.91,20.83 C14.08,20.94 14.278,20.999 14.48,21 C15.032,21 15.48,20.552 15.48,20 L15.48,18.33 L13.48,16.33 z" fill="grey"/>
    <path d="M13.5,5.9 L13.5,10.67 L15.5,12.67 L15.5,4 C15.503,3.626 15.298,3.282 14.967,3.108 C14.637,2.933 14.237,2.957 13.93,3.17 L9.23,6.4 L10.67,7.84 z" fill="grey"/>
  </g>
</svg>
