<?xml version="1.0" encoding="UTF-8"?>
<!DOCTYPE svg PUBLIC "-//W3C//DTD SVG 1.1//EN" "http://www.w3.org/Graphics/SVG/1.1/DTD/svg11.dtd">
<svg version="1.1" xmlns="http://www.w3.org/2000/svg" xmlns:xlink="http://www.w3.org/1999/xlink" x="0" y="0" width="24" height="24" viewBox="0, 0, 24, 24">
  <g id="Layer_2">
    <path d="M0,0 L24,0 L24,24 L0,24 z" fill="#FFFFFF" opacity="0"/>
    <path d="M13,19 C13,19.552 12.552,20 12,20 C11.448,20 11,19.552 11,19 C11,18.448 11.448,18 12,18 C12.552,18 13,18.448 13,19 z" fill="grey"/>
    <path d="M12,14 C10.706,14 9.462,14.502 8.53,15.4 C8.132,15.784 8.121,16.417 8.505,16.815 C8.889,17.213 9.522,17.224 9.92,16.84 C11.097,15.762 12.903,15.762 14.08,16.84 C14.478,17.224 15.111,17.213 15.495,16.815 C15.879,16.417 15.868,15.784 15.47,15.4 C14.538,14.502 13.294,14 12,14 z" fill="grey"/>
    <path d="M12,9 C9.56,9.002 7.225,9.994 5.53,11.75 C5.146,12.156 5.164,12.796 5.57,13.18 C5.976,13.564 6.616,13.546 7,13.14 C8.319,11.771 10.139,10.998 12.04,10.998 C13.941,10.998 15.761,11.771 17.08,13.14 C17.267,13.331 17.523,13.439 17.79,13.44 C18.189,13.438 18.55,13.199 18.706,12.832 C18.863,12.464 18.786,12.039 18.51,11.75 C16.806,9.984 14.454,8.991 12,9 z" fill="grey"/>
    <path d="M21.72,7.93 C16.296,2.698 7.704,2.698 2.28,7.93 C1.93,8.319 1.939,8.913 2.302,9.291 C2.664,9.669 3.256,9.703 3.66,9.37 C8.311,4.874 15.689,4.874 20.34,9.37 C20.525,9.549 20.773,9.649 21.03,9.65 C21.302,9.649 21.562,9.537 21.75,9.34 C22.13,8.942 22.116,8.312 21.72,7.93 z" fill="grey"/>
  </g>
</svg>
