<?xml version="1.0" encoding="UTF-8" standalone="no"?>
<!DOCTYPE svg PUBLIC "-//W3C//DTD SVG 1.1//EN" "http://www.w3.org/Graphics/SVG/1.1/DTD/svg11.dtd">
<svg version="1.1" xmlns="http://www.w3.org/2000/svg" xmlns:xlink="http://www.w3.org/1999/xlink" xml:space="preserve" xmlns:serif="http://www.serif.com/" width="100" height="100" viewBox="0, 0, 100, 100">
<g id="Layer_2">
  <rect x="0" y="-0" width="100" height="100" style="fill:#fff;fill-opacity:0;"/>
  <path d="M12.608,79.917l1.633,2.817c3.275,-2.021 6.858,-4.296 10.754,-6.825c3.896,-2.529 7.483,-5.454 10.754,-8.775c3.275,-3.321 6.042,-7.15 8.3,-11.483c2.258,-4.333 3.392,-9.317 3.392,-14.95c0,-8.233 -2.104,-14.587 -6.313,-19.067c-4.208,-4.479 -9.275,-6.717 -15.196,-6.717c-2.029,0 -4.092,0.287 -6.196,0.867c-2.104,0.579 -4.013,1.479 -5.729,2.708c-1.713,1.229 -3.117,2.817 -4.208,4.767c-1.092,1.95 -1.633,4.296 -1.633,7.042c0,2.746 0.542,5.092 1.633,7.042c1.092,1.95 2.417,3.538 3.975,4.767c1.558,1.229 3.275,2.129 5.146,2.708c1.867,0.579 3.662,0.867 5.375,0.867c1.713,0 3.429,-0.146 5.142,-0.433c1.717,-0.288 3.275,-0.867 4.679,-1.733c0.779,0.721 1.558,1.804 2.338,3.25c0.779,1.446 1.167,3.321 1.167,5.633c0,5.2 -2.258,9.858 -6.779,13.975c-4.521,4.117 -10.6,8.629 -18.233,13.542Zm48.392,0l1.638,2.817c3.271,-2.021 6.858,-4.296 10.754,-6.825c3.896,-2.529 7.479,-5.454 10.754,-8.775c3.271,-3.321 6.037,-7.15 8.296,-11.483c2.263,-4.333 3.392,-9.317 3.392,-14.95c0,-8.233 -2.104,-14.587 -6.312,-19.067c-4.208,-4.479 -9.275,-6.717 -15.196,-6.717c-2.025,0 -4.092,0.287 -6.196,0.867c-2.104,0.579 -4.013,1.479 -5.725,2.708c-1.717,1.229 -3.121,2.817 -4.208,4.767c-1.092,1.95 -1.638,4.296 -1.638,7.042c0,2.746 0.546,5.092 1.638,7.042c1.087,1.95 2.413,3.538 3.971,4.767c1.562,1.229 3.275,2.129 5.146,2.708c1.871,0.579 3.663,0.867 5.375,0.867c1.717,0 3.429,-0.146 5.146,-0.433c1.713,-0.288 3.271,-0.867 4.675,-1.733c0.779,0.721 1.558,1.804 2.338,3.25c0.779,1.446 1.167,3.321 1.167,5.633c0,5.2 -2.258,9.858 -6.779,13.975c-4.517,4.117 -10.596,8.629 -18.233,13.542Z" fill="#e0e0e0"/>
  </g>
</svg>