<?xml version="1.0" encoding="UTF-8"?>
<!DOCTYPE svg PUBLIC "-//W3C//DTD SVG 1.1//EN" "http://www.w3.org/Graphics/SVG/1.1/DTD/svg11.dtd">
<svg version="1.1" xmlns="http://www.w3.org/2000/svg" xmlns:xlink="http://www.w3.org/1999/xlink" x="0" y="0" width="24" height="24" viewBox="0, 0, 24, 24">
  <g id="Layer_2">
    <path d="M24,0 L24,24 L0,24 L0,0 z" fill="#FFFFFF" opacity="0"/>
    <path d="M22.56,16.3 L14.89,3.58 C14.26,2.594 13.17,1.997 12,1.997 C10.83,1.997 9.74,2.594 9.11,3.58 L1.44,16.3 C0.889,17.219 0.869,18.363 1.39,19.3 C1.992,20.355 3.115,21.005 4.33,21 L19.67,21 C20.877,21.013 21.998,20.38 22.61,19.34 C23.146,18.393 23.127,17.229 22.56,16.3 z M20.86,18.35 C20.615,18.771 20.157,19.021 19.67,19 L4.33,19 C3.843,19.021 3.385,18.771 3.14,18.35 C2.961,18.041 2.961,17.659 3.14,17.35 L10.82,4.62 C11.1,4.25 11.536,4.033 12,4.033 C12.464,4.033 12.9,4.25 13.18,4.62 L20.85,17.34 C21.036,17.65 21.039,18.036 20.86,18.35 z" fill="grey"/>
    <path d="M13,16 C13,16.552 12.552,17 12,17 C11.448,17 11,16.552 11,16 C11,15.448 11.448,15 12,15 C12.552,15 13,15.448 13,16 z" fill="grey"/>
    <path d="M12,8 C11.448,8 11,8.448 11,9 L11,13 C11,13.552 11.448,14 12,14 C12.552,14 13,13.552 13,13 L13,9 C13,8.448 12.552,8 12,8 z" fill="grey"/>
  </g>
</svg>
