<?xml version="1.0" encoding="UTF-8"?>
<!DOCTYPE svg PUBLIC "-//W3C//DTD SVG 1.1//EN" "http://www.w3.org/Graphics/SVG/1.1/DTD/svg11.dtd">
<svg version="1.1" xmlns="http://www.w3.org/2000/svg" xmlns:xlink="http://www.w3.org/1999/xlink" x="0" y="0" width="24" height="24" viewBox="0, 0, 24, 24">
  <g id="Layer_2">
    <path d="M0,0 L24,0 L24,24 L0,24 z" fill="#FFFFFF" opacity="0"/>
    <path d="M12.71,7.29 C12.618,7.2 12.509,7.129 12.39,7.08 C12.267,7.027 12.134,7 12,7 L12,7 L11.9,7 C11.807,7.005 11.716,7.025 11.63,7.06 C11.561,7.087 11.497,7.124 11.44,7.17 C11.394,7.197 11.351,7.227 11.31,7.26 L8.31,10.12 C7.91,10.501 7.894,11.135 8.275,11.535 C8.656,11.935 9.29,11.951 9.69,11.57 L11,10.34 L11,16 C11,16.552 11.448,17 12,17 C12.552,17 13,16.552 13,16 L13,10.41 L14.29,11.71 C14.478,11.899 14.733,12.006 15,12.006 C15.267,12.006 15.522,11.899 15.71,11.71 C15.899,11.522 16.006,11.267 16.006,11 C16.006,10.733 15.899,10.478 15.71,10.29 z" fill="grey"/>
    <path d="M12,2 C6.477,2 2,6.477 2,12 C2,17.523 6.477,22 12,22 C17.523,22 22,17.523 22,12 C22,6.477 17.523,2 12,2 z M12,20 C7.582,20 4,16.418 4,12 C4,7.582 7.582,4 12,4 C16.418,4 20,7.582 20,12 C20,16.418 16.418,20 12,20 z" fill="grey"/>
  </g>
</svg>
