<?xml version="1.0" encoding="UTF-8"?>
<!DOCTYPE svg PUBLIC "-//W3C//DTD SVG 1.1//EN" "http://www.w3.org/Graphics/SVG/1.1/DTD/svg11.dtd">
<svg version="1.1" xmlns="http://www.w3.org/2000/svg" xmlns:xlink="http://www.w3.org/1999/xlink" x="0" y="0" width="24" height="24" viewBox="0, 0, 24, 24">
  <g id="Layer_2">
    <rect width="24" height="24" fill="#FFFFFF" opacity="0"/>
    <path d="M6.63,11.61,12,7.29l5.37,4.48A1,1,0,0,0,18,12a1,1,0,0,0,.77-.36,1,1,0,0,0-.13-1.41l-6-5a1,1,0,0,0-1.27,0l-6,4.83a1,1,0,0,0-.15,1.41A1,1,0,0,0,6.63,11.61Z" fill="grey"/>
    <path d="M12.64,12.23a1,1,0,0,0-1.27,0l-6,4.83a1,1,0,0,0-.15,1.41,1,1,0,0,0,1.41.15L12,14.29l5.37,4.48A1,1,0,0,0,18,19a1,1,0,0,0,.77-.36,1,1,0,0,0-.13-1.41Z" fill="grey"/>
  </g>
</svg>