<?xml version="1.0" encoding="UTF-8"?>
<!DOCTYPE svg PUBLIC "-//W3C//DTD SVG 1.1//EN" "http://www.w3.org/Graphics/SVG/1.1/DTD/svg11.dtd">
<svg version="1.1" xmlns="http://www.w3.org/2000/svg" xmlns:xlink="http://www.w3.org/1999/xlink" x="0" y="0" width="24" height="24" viewBox="0, 0, 24, 24">
  <g id="Layer_2">
    <rect width="24" height="24" fill="#FFFFFF" opacity="0"/>
    <path d="M18.78,11.37,14,5.37a1,1,0,0,0-1.41-.15,1,1,0,0,0-.15,1.41L16.71,12l-4.48,5.37a1,1,0,0,0,.13,1.41A1,1,0,0,0,13,19a1,1,0,0,0,.77-.36l5-6A1,1,0,0,0,18.78,11.37Z" fill="grey"/>
    <path d="M7,5.37A1,1,0,0,0,5.39,6.63L9.71,12,5.23,17.36a1,1,0,0,0,.13,1.41A1,1,0,0,0,6,19a1,1,0,0,0,.77-.36l5-6a1,1,0,0,0,0-1.27Z" fill="grey"/>  </g>
</svg>
