<?xml version="1.0" encoding="UTF-8"?>
<!DOCTYPE svg PUBLIC "-//W3C//DTD SVG 1.1//EN" "http://www.w3.org/Graphics/SVG/1.1/DTD/svg11.dtd">
<svg version="1.1" xmlns="http://www.w3.org/2000/svg" xmlns:xlink="http://www.w3.org/1999/xlink" x="0" y="0" width="24" height="24" viewBox="0, 0, 24, 24">
  <g id="Layer_2">
    <rect width="24" height="24" fill="#FFFFFF" opacity="0"/>
    <path d="M15.83,6H4.17A2.31,2.31,0,0,0,2,8.43v7.14A2.31,2.31,0,0,0,4.17,18H15.83A2.31,2.31,0,0,0,18,15.57V8.43A2.31,2.31,0,0,0,15.83,6ZM16,15.57a.52.52,0,0,1-.17.43H4.18A.5.5,0,0,1,4,15.57V8.43A.53.53,0,0,1,4.17,8H15.82a.5.5,0,0,1,.18.43Z" fill="grey"/>
    <path d="M21,9a1,1,0,0,0-1,1v4a1,1,0,0,0,2,0V10A1,1,0,0,0,21,9Z" fill="grey"/>
  </g>
</svg>
