<?xml version="1.0" encoding="UTF-8"?>
<!DOCTYPE svg PUBLIC "-//W3C//DTD SVG 1.1//EN" "http://www.w3.org/Graphics/SVG/1.1/DTD/svg11.dtd">
<svg version="1.1" xmlns="http://www.w3.org/2000/svg" xmlns:xlink="http://www.w3.org/1999/xlink" x="0" y="0" width="24" height="24" viewBox="0, 0, 24, 24">
  <g id="Layer_2">
    <path d="M0,0 L24,0 L24,24 L0,24 z" fill="#FFFFFF" opacity="0"/>
    <path d="M19,7 L16,7 L16,5.5 C16,4.119 14.881,3 13.5,3 L10.5,3 C9.119,3 8,4.119 8,5.5 L8,7 L5,7 C3.343,7 2,8.343 2,10 L2,18 C2,19.657 3.343,21 5,21 L19,21 C20.657,21 22,19.657 22,18 L22,10 C22,8.343 20.657,7 19,7 z M10,5.5 C10,5.224 10.224,5 10.5,5 L13.5,5 C13.776,5 14,5.224 14,5.5 L14,7 L10,7 z M20,18 C20,18.552 19.552,19 19,19 L5,19 C4.448,19 4,18.552 4,18 L4,10 C4,9.448 4.448,9 5,9 L19,9 C19.552,9 20,9.448 20,10 z" fill="grey"/>
    <path d="M12,10.5 C10.067,10.5 8.5,12.067 8.5,14 C8.5,15.933 10.067,17.5 12,17.5 C13.933,17.5 15.5,15.933 15.5,14 C15.5,12.067 13.933,10.5 12,10.5 z M12,15.5 C11.172,15.5 10.5,14.828 10.5,14 C10.5,13.172 11.172,12.5 12,12.5 C12.828,12.5 13.5,13.172 13.5,14 C13.5,14.828 12.828,15.5 12,15.5 z" fill="grey"/>
  </g>
</svg>
