<?xml version="1.0" encoding="UTF-8"?>
<!DOCTYPE svg PUBLIC "-//W3C//DTD SVG 1.1//EN" "http://www.w3.org/Graphics/SVG/1.1/DTD/svg11.dtd">
<svg version="1.1" xmlns="http://www.w3.org/2000/svg" xmlns:xlink="http://www.w3.org/1999/xlink" x="0" y="0" width="24" height="24" viewBox="0, 0, 24, 24">
  <g id="Layer_2">
    <path d="M0,0 L24,0 L24,24 L0,24 z" fill="#FFFFFF" opacity="0"/>
    <path d="M12,2 C6.477,2 2,6.477 2,12 C2,17.523 6.477,22 12,22 C17.523,22 22,17.523 22,12 C22,6.477 17.523,2 12,2 z M12,20 C7.582,20 4,16.418 4,12 C4,7.582 7.582,4 12,4 C16.418,4 20,7.582 20,12 C20,16.418 16.418,20 12,20 z" fill="grey"/>
    <path d="M9.058,15 C9.792,15 10.458,14.758 10.983,14.35 C11.183,14.192 11.217,13.892 11.067,13.683 C10.9,13.483 10.592,13.45 10.4,13.592 C10.025,13.892 9.58,14.046 9.064,14.046 C8.489,14.046 7.95,13.817 7.558,13.45 C7.183,13.083 6.95,12.567 6.95,12 C6.95,11.433 7.183,10.933 7.558,10.55 C7.95,10.183 8.483,9.95 9.058,9.95 C9.575,9.95 10.033,10.108 10.4,10.408 C10.592,10.558 10.9,10.525 11.067,10.317 C11.217,10.108 11.183,9.817 10.983,9.65 C10.458,9.242 9.792,9 9.058,9 C7.392,9.008 6.008,10.35 6,12 C6.008,13.658 7.392,15 9.058,15 z" fill="grey"/>
    <path d="M16.058,15 C16.792,15 17.458,14.758 17.983,14.35 C18.183,14.192 18.217,13.892 18.067,13.683 C17.9,13.483 17.592,13.45 17.4,13.592 C17.025,13.892 16.58,14.046 16.064,14.046 C15.489,14.046 14.95,13.817 14.558,13.45 C14.183,13.083 13.95,12.567 13.95,12 C13.95,11.433 14.183,10.933 14.558,10.55 C14.95,10.183 15.483,9.95 16.058,9.95 C16.575,9.95 17.033,10.108 17.4,10.408 C17.592,10.558 17.9,10.525 18.067,10.317 C18.217,10.108 18.183,9.817 17.983,9.65 C17.458,9.242 16.792,9 16.058,9 C14.392,9.008 13.008,10.35 13,12 C13.008,13.658 14.392,15 16.058,15 z" fill="grey"/>
  </g>
</svg>
