<?xml version="1.0" encoding="UTF-8"?>
<!DOCTYPE svg PUBLIC "-//W3C//DTD SVG 1.1//EN" "http://www.w3.org/Graphics/SVG/1.1/DTD/svg11.dtd">
<svg version="1.1" xmlns="http://www.w3.org/2000/svg" xmlns:xlink="http://www.w3.org/1999/xlink" x="0" y="0" width="24" height="24" viewBox="0, 0, 24, 24">
  <g id="Layer_2">
    <path d="M0,0 L24,0 L24,24 L0,24 z" fill="#FFFFFF" opacity="0"/>
    <path d="M21.87,11.5 C21.23,10.39 17.71,4.82 11.73,5 C6.2,5.14 3,10 2.13,11.5 C1.951,11.809 1.951,12.191 2.13,12.5 C2.76,13.59 6.13,19 12.02,19 L12.27,19 C17.8,18.86 21.01,14 21.87,12.5 C22.049,12.191 22.049,11.809 21.87,11.5 z M12.22,17 C7.91,17.1 5.1,13.41 4.22,12 C5.22,10.39 7.83,7.1 11.83,7 C16.12,6.89 18.94,10.59 19.83,12 C18.8,13.61 16.22,16.9 12.22,17 z" fill="grey"/>
    <path d="M12,8.5 C10.067,8.5 8.5,10.067 8.5,12 C8.5,13.933 10.067,15.5 12,15.5 C13.933,15.5 15.5,13.933 15.5,12 C15.5,10.067 13.933,8.5 12,8.5 z M12,13.5 C11.172,13.5 10.5,12.828 10.5,12 C10.5,11.172 11.172,10.5 12,10.5 C12.828,10.5 13.5,11.172 13.5,12 C13.5,12.828 12.828,13.5 12,13.5 z" fill="grey"/>
  </g>
</svg>
