<?xml version="1.0" encoding="UTF-8"?>
<!DOCTYPE svg PUBLIC "-//W3C//DTD SVG 1.1//EN" "http://www.w3.org/Graphics/SVG/1.1/DTD/svg11.dtd">
<svg version="1.1" xmlns="http://www.w3.org/2000/svg" xmlns:xlink="http://www.w3.org/1999/xlink" x="0" y="0" width="24" height="24" viewBox="0, 0, 24, 24">
  <g id="Layer_2">
    <path d="M0,0 L24,0 L24,24 L0,24 z" fill="#FFFFFF" opacity="0"/>
    <path d="M19.5,20.5 L4.5,20.5 C3.14,20.517 2.022,19.43 2,18.07 L2,5.93 C2.022,4.57 3.14,3.483 4.5,3.5 L9.1,3.5 C9.399,3.502 9.682,3.638 9.87,3.87 L12.47,7.05 L19.47,7.05 C20.129,7.034 20.766,7.282 21.241,7.738 C21.716,8.194 21.99,8.821 22,9.48 L22,18.07 C21.978,19.43 20.86,20.517 19.5,20.5 z M4,13.76 L4,18.07 C4.008,18.194 4.065,18.31 4.159,18.391 C4.253,18.472 4.376,18.511 4.5,18.5 L19.5,18.5 C19.624,18.511 19.747,18.472 19.841,18.391 C19.935,18.31 19.992,18.194 20,18.07 L20,9.48 C19.992,9.356 19.935,9.24 19.841,9.159 C19.747,9.078 19.624,9.039 19.5,9.05 L12,9.05 C11.701,9.048 11.418,8.912 11.23,8.68 L8.63,5.5 L4.5,5.5 C4.376,5.489 4.253,5.528 4.159,5.609 C4.065,5.69 4.008,5.806 4,5.93 z" fill="grey"/>
  </g>
</svg>
