<?xml version="1.0" encoding="UTF-8"?>
<!DOCTYPE svg PUBLIC "-//W3C//DTD SVG 1.1//EN" "http://www.w3.org/Graphics/SVG/1.1/DTD/svg11.dtd">
<svg version="1.1" xmlns="http://www.w3.org/2000/svg" xmlns:xlink="http://www.w3.org/1999/xlink" x="0" y="0" width="24" height="24" viewBox="0, 0, 24, 24">
  <g id="Layer_2">
    <path d="M0,0 L24,0 L24,24 L0,24" fill="#FFFFFF" opacity="0"/>
    <path d="M12,22 L11.57,22 C6.36,21.702 2.223,17.504 2,12.29 C1.896,8.841 3.578,5.582 6.45,3.668 C9.321,1.755 12.976,1.457 16.12,2.88 C16.482,3.051 16.76,3.361 16.89,3.74 C17.018,4.124 16.982,4.544 16.79,4.9 L15.5,7.28 C15.146,7.934 14.354,8.211 13.67,7.92 C11.969,7.251 10.032,7.678 8.77,9 C7.934,9.903 7.514,11.114 7.61,12.34 C7.73,13.525 8.33,14.609 9.27,15.34 C10.232,16.136 11.481,16.498 12.72,16.34 C13.774,16.198 14.725,15.631 15.35,14.77 L12.45,14.77 C11.653,14.77 11.005,14.127 11,13.33 L11,10.65 C11,9.849 11.649,9.2 12.45,9.2 L20.55,9.2 C21.345,9.205 21.989,9.845 22,10.64 C22,11.27 22,12.34 22,12.52 C21.723,17.839 17.326,22.007 12,22 z M12,4 C9.836,3.999 7.764,4.875 6.257,6.427 C4.749,7.98 3.935,10.077 4,12.24 C4.178,16.408 7.485,19.762 11.65,20 C16.044,20.198 19.774,16.812 20,12.42 L20,11.2 L13,11.2 L13,12.78 L18.31,12.78 L17.9,14.08 C17.239,16.334 15.324,17.994 13,18.33 C11.222,18.588 9.415,18.107 8,17 C6.605,15.906 5.733,14.276 5.596,12.508 C5.459,10.74 6.07,8.996 7.28,7.7 C8.988,5.859 11.602,5.163 14,5.91 L14.77,4.48 C13.883,4.156 12.945,3.993 12,4 z" fill="grey"/>
  </g>
</svg>
