<?xml version="1.0" encoding="UTF-8"?>
<!DOCTYPE svg PUBLIC "-//W3C//DTD SVG 1.1//EN" "http://www.w3.org/Graphics/SVG/1.1/DTD/svg11.dtd">
<svg version="1.1" xmlns="http://www.w3.org/2000/svg" xmlns:xlink="http://www.w3.org/1999/xlink" x="0" y="0" width="24" height="24" viewBox="0, 0, 24, 24">
  <g id="Layer_2">
    <path d="M0,0 L24,0 L24,24 L0,24 z" fill="#FFFFFF" opacity="0"/>
    <path d="M20,11 C19.448,11 19,11.448 19,12 L19,18 C19,18.552 18.552,19 18,19 L6,19 C5.448,19 5,18.552 5,18 L5,6 C5,5.448 5.448,5 6,5 L12,5 C12.552,5 13,4.552 13,4 C13,3.448 12.552,3 12,3 L6,3 C4.343,3 3,4.343 3,6 L3,18 C3,19.657 4.343,21 6,21 L18,21 C19.657,21 21,19.657 21,18 L21,12 C21,11.448 20.552,11 20,11 z" fill="grey"/>
    <path d="M16,5 L17.58,5 L11.29,11.28 C11.101,11.468 10.994,11.723 10.994,11.99 C10.994,12.257 11.101,12.512 11.29,12.7 C11.478,12.889 11.733,12.996 12,12.996 C12.267,12.996 12.522,12.889 12.71,12.7 L19,6.42 L19,8 C19,8.552 19.448,9 20,9 L20,9 C20.552,9 21,8.552 21,8 L21,4 C21,3.448 20.552,3 20,3 L16,3 L16,3 C15.448,3 15,3.448 15,4 C15,4.552 15.448,5 16,5 z" fill="grey"/>
  </g>
</svg>
