<?xml version="1.0" encoding="UTF-8"?>
<!DOCTYPE svg PUBLIC "-//W3C//DTD SVG 1.1//EN" "http://www.w3.org/Graphics/SVG/1.1/DTD/svg11.dtd">
<svg version="1.1" xmlns="http://www.w3.org/2000/svg" xmlns:xlink="http://www.w3.org/1999/xlink" x="0" y="0" width="24" height="24" viewBox="0, 0, 24, 24">
  <g id="Layer_2">
    <path d="M0,0 L24,0 L24,24 L0,24 z" fill="#FFFFFF" opacity="0"/>
    <path d="M12,15 C14.209,15 16,13.209 16,11 L16,6 C16,3.791 14.209,2 12,2 C9.791,2 8,3.791 8,6 L8,11 C8,13.209 9.791,15 12,15 z M10,6 C10,4.895 10.895,4 12,4 C13.105,4 14,4.895 14,6 L14,11 C14,12.105 13.105,13 12,13 C10.895,13 10,12.105 10,11 z" fill="grey"/>
    <path d="M19,11 C19,10.448 18.552,10 18,10 C17.448,10 17,10.448 17,11 C17,13.761 14.761,16 12,16 C9.239,16 7,13.761 7,11 C7,10.448 6.552,10 6,10 C5.448,10 5,10.448 5,11 C5.004,14.477 7.559,17.423 11,17.92 L11,20 L8.89,20 C8.398,20 8,20.398 8,20.89 L8,21.11 C8,21.602 8.398,22 8.89,22 L15.11,22 C15.602,22 16,21.602 16,21.11 L16,20.89 C16,20.398 15.602,20 15.11,20 L13,20 L13,17.92 C16.441,17.423 18.996,14.477 19,11 z" fill="grey"/>
  </g>
</svg>
