<?xml version="1.0" encoding="UTF-8"?>
<!DOCTYPE svg PUBLIC "-//W3C//DTD SVG 1.1//EN" "http://www.w3.org/Graphics/SVG/1.1/DTD/svg11.dtd">
<svg version="1.1" xmlns="http://www.w3.org/2000/svg" xmlns:xlink="http://www.w3.org/1999/xlink" x="0" y="0" width="24" height="24" viewBox="0, 0, 24, 24">
  <g id="Layer_2">
    <path d="M0,0 L24,0 L24,24 L0,24 z" fill="#FFFFFF" opacity="0"/>
    <path d="M20.71,19.29 L17.31,15.9 C18.407,14.502 19.002,12.777 19,11 C19,6.582 15.418,3 11,3 C6.582,3 3,6.582 3,11 C3,15.418 6.582,19 11,19 C12.777,19.002 14.502,18.407 15.9,17.31 L19.29,20.71 C19.478,20.899 19.733,21.006 20,21.006 C20.267,21.006 20.522,20.899 20.71,20.71 C20.899,20.522 21.006,20.267 21.006,20 C21.006,19.733 20.899,19.478 20.71,19.29 z M5,11 C5,7.686 7.686,5 11,5 C14.314,5 17,7.686 17,11 C17,14.314 14.314,17 11,17 C7.686,17 5,14.314 5,11 z" fill="grey"/>
  </g>
</svg>
