<?xml version="1.0" encoding="UTF-8"?>
<!DOCTYPE svg PUBLIC "-//W3C//DTD SVG 1.1//EN" "http://www.w3.org/Graphics/SVG/1.1/DTD/svg11.dtd">
<svg version="1.1" xmlns="http://www.w3.org/2000/svg" xmlns:xlink="http://www.w3.org/1999/xlink" x="0" y="0" width="24" height="24" viewBox="0, 0, 24, 24">
  <g id="Layer_2">
    <rect width="24" height="24" fill="#FFFFFF" opacity="0"/>
    <path class="cls-2" d="M18,15a3,3,0,0,0-2.1.86L8,12.34c0-.12,0-.22,0-.34s0-.22,0-.33L15.9,8.14A3,3,0,1,0,15,6c0,.12,0,.22,0,.34L7.1,9.86a3,3,0,1,0,0,4.28L15,17.67c0,.11,0,.22,0,.33a3,3,0,1,0,3-3ZM18,5a1,1,0,1,1-1,1A1,1,0,0,1,18,5ZM5,13a1,1,0,1,1,1-1A1,1,0,0,1,5,13Zm13,6a1,1,0,1,1,1-1A1,1,0,0,1,18,19Z" fill="grey"/>
  </g>
</svg>
