<?xml version="1.0" encoding="UTF-8"?>
<!DOCTYPE svg PUBLIC "-//W3C//DTD SVG 1.1//EN" "http://www.w3.org/Graphics/SVG/1.1/DTD/svg11.dtd">
<svg version="1.1" xmlns="http://www.w3.org/2000/svg" xmlns:xlink="http://www.w3.org/1999/xlink" x="0" y="0" width="24" height="24" viewBox="0, 0, 24, 24">
  <g id="Layer_2">
    <rect width="24" height="24" fill="#FFFFFF" opacity="0"/>
    <path d="M3.026,19.18l0.392,0.676c0.786,-0.485 1.646,-1.031 2.581,-1.638c0.935,-0.607 1.796,-1.309 2.581,-2.106c0.786,-0.797 1.45,-1.716 1.992,-2.756c0.542,-1.04 0.814,-2.236 0.814,-3.588c0,-1.976 -0.505,-3.501 -1.515,-4.576c-1.01,-1.075 -2.226,-1.612 -3.647,-1.612c-0.487,0 -0.982,0.069 -1.487,0.208c-0.505,0.139 -0.963,0.355 -1.375,0.65c-0.411,0.295 -0.748,0.676 -1.01,1.144c-0.262,0.468 -0.392,1.031 -0.392,1.69c0,0.659 0.13,1.222 0.392,1.69c0.262,0.468 0.58,0.849 0.954,1.144c0.374,0.295 0.786,0.511 1.235,0.65c0.448,0.139 0.879,0.208 1.29,0.208c0.411,0 0.823,-0.035 1.234,-0.104c0.412,-0.069 0.786,-0.208 1.123,-0.416c0.187,0.173 0.374,0.433 0.561,0.78c0.187,0.347 0.28,0.797 0.28,1.352c0,1.248 -0.542,2.366 -1.627,3.354c-1.085,0.988 -2.544,2.071 -4.376,3.25Zm11.614,0l0.393,0.676c0.785,-0.485 1.646,-1.031 2.581,-1.638c0.935,-0.607 1.795,-1.309 2.581,-2.106c0.785,-0.797 1.449,-1.716 1.991,-2.756c0.543,-1.04 0.814,-2.236 0.814,-3.588c0,-1.976 -0.505,-3.501 -1.515,-4.576c-1.01,-1.075 -2.226,-1.612 -3.647,-1.612c-0.486,0 -0.982,0.069 -1.487,0.208c-0.505,0.139 -0.963,0.355 -1.374,0.65c-0.412,0.295 -0.749,0.676 -1.01,1.144c-0.262,0.468 -0.393,1.031 -0.393,1.69c0,0.659 0.131,1.222 0.393,1.69c0.261,0.468 0.579,0.849 0.953,1.144c0.375,0.295 0.786,0.511 1.235,0.65c0.449,0.139 0.879,0.208 1.29,0.208c0.412,0 0.823,-0.035 1.235,-0.104c0.411,-0.069 0.785,-0.208 1.122,-0.416c0.187,0.173 0.374,0.433 0.561,0.78c0.187,0.347 0.28,0.797 0.28,1.352c0,1.248 -0.542,2.366 -1.627,3.354c-1.084,0.988 -2.543,2.071 -4.376,3.25Z" fill="grey"/>
  </g>
</svg>
