<?xml version="1.0" encoding="UTF-8"?>
<!DOCTYPE svg PUBLIC "-//W3C//DTD SVG 1.1//EN" "http://www.w3.org/Graphics/SVG/1.1/DTD/svg11.dtd">
<svg version="1.1" xmlns="http://www.w3.org/2000/svg" xmlns:xlink="http://www.w3.org/1999/xlink" x="0" y="0" width="24" height="24" viewBox="0, 0, 24, 24">
  <g id="Layer_2">
    <path d="M0,0 L24,0 L24,24 L0,24 z" fill="#FFFFFF" opacity="0"/>
    <path d="M21,7.15 C20.379,6.87 19.651,6.988 19.15,7.45 L17,9.45 L17,8 C17,6.343 15.657,5 14,5 L5,5 C3.343,5 2,6.343 2,8 L2,16 C2,17.657 3.343,19 5,19 L14,19 C15.657,19 17,17.657 17,16 L17,14.55 L19.16,16.55 C19.478,16.838 19.891,16.998 20.32,17 C20.558,16.999 20.793,16.948 21.01,16.85 C21.613,16.606 22.009,16.021 22.01,15.37 L22.01,8.63 C22.007,7.977 21.607,7.391 21,7.15 z M15,16 C15,16.552 14.552,17 14,17 L5,17 C4.448,17 4,16.552 4,16 L4,8 C4,7.448 4.448,7 5,7 L14,7 C14.552,7 15,7.448 15,8 z M20,14.6 L17.19,12 L20,9.4 z" fill="grey"/>
  </g>
</svg>
